<svg width="4" height="8" viewBox="0 0 4 8" fill="none" xmlns="http://www.w3.org/2000/svg">
<path d="M1.81456 7.11072V2.28672C1.58656 2.44872 1.31356 2.59572 0.995556 2.72772V2.03472C1.21756 1.84872 1.41256 1.65372 1.58056 1.44972C1.74856 1.24572 1.88656 1.03572 1.99456 0.819717H2.38156C2.48956 1.03572 2.62456 1.24572 2.78656 1.44972C2.95456 1.65372 3.14956 1.84872 3.37156 2.03472V2.72772C3.21556 2.66772 3.06856 2.60172 2.93056 2.52972C2.79856 2.45772 2.67556 2.37972 2.56156 2.29572V7.11072H1.81456Z" fill="black"/>
<path d="M1.81456 7.11072H1.76456V7.16072H1.81456V7.11072ZM1.81456 2.28672H1.86456V2.18986L1.7856 2.24596L1.81456 2.28672ZM0.995556 2.72772H0.945556V2.80261L1.01472 2.7739L0.995556 2.72772ZM0.995556 2.03472L0.963445 1.99639L0.945556 2.01138V2.03472H0.995556ZM1.58056 1.44972L1.61915 1.4815H1.61915L1.58056 1.44972ZM1.99456 0.819717V0.769717H1.96365L1.94983 0.797357L1.99456 0.819717ZM2.38156 0.819717L2.42628 0.797357L2.41246 0.769717H2.38156V0.819717ZM2.78656 1.44972L2.74739 1.48082L2.74796 1.4815L2.78656 1.44972ZM3.37156 2.03472H3.42156V2.01138L3.40367 1.99639L3.37156 2.03472ZM3.37156 2.72772L3.35361 2.77438L3.42156 2.80052V2.72772H3.37156ZM2.93056 2.52972L2.90661 2.57362L2.90743 2.57405L2.93056 2.52972ZM2.56156 2.29572L2.59122 2.25546L2.51156 2.19677V2.29572H2.56156ZM2.56156 7.11072V7.16072H2.61156V7.11072H2.56156ZM1.86456 7.11072V2.28672H1.76456V7.11072H1.86456ZM1.7856 2.24596C1.56125 2.40536 1.29169 2.55066 0.976387 2.68154L1.01472 2.7739C1.33542 2.64078 1.61186 2.49207 1.84352 2.32748L1.7856 2.24596ZM1.04556 2.72772V2.03472H0.945556V2.72772H1.04556ZM1.02767 2.07304C1.2518 1.88525 1.44902 1.68809 1.61915 1.4815L1.54196 1.41793C1.37609 1.61934 1.18331 1.81218 0.963445 1.99639L1.02767 2.07304ZM1.61915 1.4815C1.78932 1.27487 1.92945 1.06174 2.03928 0.842078L1.94983 0.797357C1.84366 1.0097 1.70779 1.21656 1.54196 1.41793L1.61915 1.4815ZM1.99456 0.869717H2.38156V0.769717H1.99456V0.869717ZM2.33683 0.842078C2.4465 1.06141 2.58342 1.27431 2.7474 1.48081L2.82571 1.41862C2.6657 1.21712 2.53261 1.01003 2.42628 0.797357L2.33683 0.842078ZM2.74796 1.4815C2.91809 1.68809 3.11531 1.88525 3.33944 2.07304L3.40367 1.99639C3.1838 1.81218 2.99102 1.61934 2.82515 1.41793L2.74796 1.4815ZM3.32156 2.03472V2.72772H3.42156V2.03472H3.32156ZM3.3895 2.68105C3.23515 2.62168 3.08989 2.55645 2.95368 2.48539L2.90743 2.57405C3.04723 2.64699 3.19597 2.71375 3.35361 2.77438L3.3895 2.68105ZM2.9545 2.48582C2.82436 2.41484 2.70329 2.33804 2.59122 2.25546L2.5319 2.33597C2.64783 2.42139 2.77275 2.5006 2.90661 2.57361L2.9545 2.48582ZM2.51156 2.29572V7.11072H2.61156V2.29572H2.51156ZM2.56156 7.06072H1.81456V7.16072H2.56156V7.06072Z" fill="white"/>
</svg>
