<svg width="910" height="669" viewBox="0 0 910 669" fill="none" xmlns="http://www.w3.org/2000/svg">
<path d="M627.426 396.599L628.475 402.704L650.877 428.64L715.254 435.43L713.675 425.587L721.842 412.775L723.103 408.653L719.956 403.846L726.556 402.019L726.662 397.814L729.596 396.142L727.074 391.107L727.911 381.036L732.518 379.354L733.355 384.244L736.077 385.77L741.946 381.337L742.57 367.154L736.289 363.801L736.077 353.875L730.633 361.662L720.381 366.999L719.956 369.75L713.051 377.828L704.884 382.406L699.864 389.882H695.681L692.322 391.865L695.881 394.46L694.832 397.056L688.351 396.443L687.09 400.108L678.723 401.936L667.834 400.264L655.685 400.866L651.501 398.883L643.335 404.687L635.38 404.23L632.034 401.635V397.669L627.426 396.599Z" fill="#9AC2D4" fill-opacity="0.1" stroke="white" stroke-opacity="0.4" stroke-width="0.75" stroke-miterlimit="10"/>
<path d="M635.487 519.642L671.912 509.343L707.713 496.531L725.931 450.765L715.254 435.43L713.675 425.587L721.842 412.775L723.103 408.653L719.956 403.846L726.556 402.019L726.662 397.814L729.596 396.142L727.074 391.107L727.911 381.036L732.518 379.354L733.355 384.244L736.077 385.77L741.946 381.337L746.129 391.719L759.528 404.075L775.437 409.11H783.391L786.326 411.394L792.394 410.937L799.512 414.758L804.332 422.379L812.074 431.837L823.587 437.641L825.685 444.504L820.453 453.049L816.258 454.274L812.216 463.473L806.771 465.404L799.1 473.544L798.958 477.718L794.492 480.76L794.068 485.338L791.982 487.27L786.809 487.477L785.701 485.338L787.787 483.615V480.864L784.157 481.684L779.55 486.055V488.9L776.344 491.443L777.322 496.23L776.898 499.427L772.927 502.179L776.486 517.13L773.976 520.483H764.76L753.247 523.691L748.015 527.502L747.591 534.821L741.734 542.453L721.429 544.28L714.512 550.333L713.958 552.877L716.197 554.102L715.773 558.68L707.819 564.983L703.765 565.19L699.723 563.353L688.975 563.56L684.792 566.104L677.816 566.706L671.11 570.579L661.966 571.285L653.387 555.42L655.06 551.454L635.487 519.642Z" fill="#9AC2D4" fill-opacity="0.1" stroke="white" stroke-opacity="0.4" stroke-width="0.75" stroke-miterlimit="10"/>
<path d="M736.077 353.875L738.8 349.681L742.783 347.012L743.725 350.366L742.983 358.308L739.53 365.555L736.289 363.801L736.077 353.875Z" fill="#9AC2D4" fill-opacity="0.1" stroke="white" stroke-opacity="0.4" stroke-width="0.75" stroke-miterlimit="10"/>
<path d="M635.486 519.642L611.305 524.449L568.917 526.733L545.678 536.576L530.913 553.51L529.027 561.525L522.44 565.19L515.216 565.419L511.127 557.632L489.149 558.545L475.644 554.434L440.48 555.576L430.428 549.855L426.657 552.596L428.224 556.947L425.09 559.231V565.647L428.224 567.931L427.6 571.825L415.356 578.688L417.548 582.809L418.809 590.129L414.731 593.109L415.98 599.743L410.642 602.484L411.267 604.55L416.923 605.236L420.694 611.87L421.012 624.225L428.224 635.438L427.293 648.718L431.995 651.459L432.938 659.702L438.594 658.56L442.365 661.53L453.348 661.758L457.744 657.408L470.942 658.56L472.816 652.839L481.301 651.459L485.072 645.509L493.863 642.997L511.445 644.367L527.778 638.418L530.913 634.296L541.589 629.718L547.564 631.555L559.808 629.032L567.974 618.961L580.218 612.784H589.634L609.738 605.236L619.79 605.921L640.2 595.85L642.71 588.987L640.507 582.809L649.616 575.251L661.966 571.285L653.387 555.42L655.06 551.454L635.486 519.642Z" fill="#9AC2D4" fill-opacity="0.1" stroke="white" stroke-opacity="0.4" stroke-width="0.75" stroke-miterlimit="10"/>
<path d="M671.806 658.757L668.176 663.44L676.979 668.32L687.019 668.424L696.788 663.741L691.073 658.654L685.063 660.491L678.369 660.595L671.806 658.757Z" fill="#9AC2D4" fill-opacity="0.1" stroke="white" stroke-opacity="0.4" stroke-width="0.75" stroke-miterlimit="10"/>
<path d="M627.426 396.599L620.933 396.443L621.145 392.176L612.978 391.719L608.583 384.701L601.677 377.371L602.09 370.352L595.608 367.31V363.489L589.952 356.325L594.135 351.435L595.184 345.642L590.577 343.96L590.789 336.64L582.21 333.131L579.275 328.708L574.043 328.853L572.37 325.354L568.186 322.302L571.946 320.62L571.533 318.18L561.693 317.266L563.154 311.618L559.383 306.583L554.988 306.282L554.576 296.668L551.853 293.459L534.471 294.684L532.386 286.596L527.354 282.475L465.392 279.277L397.974 229.233L387.509 227.707L361.549 210.918L352.758 206.35L331.404 205.426L326.384 208.79L279.07 221.913L302.097 246.323L294.143 249.064L289.111 258.221L273.626 261.886L266.508 271.947L255.62 278.664L229.659 275.311L226.725 285.07L225.051 294.228L219.607 305.212L233.43 306.126L248.926 324.129L249.339 329.622L269.018 354.945L268.182 360.748L271.116 363.489L275.299 364.102L279.483 367.86L278.788 370.913L283.772 375.699L282.205 384.389L288.18 391.034L289.111 396.526L296.334 397.212L300.424 401.095L309.533 404.075L317.063 414.374V420.095L324.287 429.024L327.74 442.749L323.344 452.592L328.682 456.714L331.192 463.577L328.364 466.318L345.322 489.44H351.296L364.801 500.653L368.56 500.424L368.254 506.145L373.592 508.886L379.343 526.131L384.787 530.097L384.375 535.891L390.656 544.28L405.928 552.368L405.092 559.231L415.285 570.174L415.356 578.688L427.6 571.825L428.224 567.931L425.09 565.647V559.231L428.224 556.947L426.657 552.596L430.428 549.855L440.48 555.576L475.644 554.434L489.149 558.545L511.127 557.632L515.216 565.419L522.44 565.19L529.027 561.525L530.913 553.51L545.678 536.576L568.917 526.734L611.305 524.449L635.486 519.642L671.912 509.343L707.712 496.531L725.931 450.765L715.254 435.43L650.877 428.64L628.475 402.704L627.426 396.599Z" fill="#9AC2D4" fill-opacity="0.1" stroke="white" stroke-opacity="0.4" stroke-width="0.75" stroke-miterlimit="10"/>
<path d="M400.213 573.019L402.864 572.51L402.723 569.966L398.257 569.457L392.53 566.301L391.28 568.232L395.605 571.389L400.213 573.019Z" fill="#9AC2D4" fill-opacity="0.1" stroke="white" stroke-opacity="0.4" stroke-width="0.75" stroke-miterlimit="10"/>
<path d="M551.853 293.459L549.756 285.984L544.523 282.63L542.226 274.854L534.684 273.629L539.291 269.05L543.475 269.362V266.61L540.752 262.488L541.589 258.377L528.403 255.626L517.938 262.644L527.354 268.749V282.475L532.386 286.597L534.471 294.685L551.853 293.459Z" fill="#9AC2D4" fill-opacity="0.1" stroke="white" stroke-opacity="0.4" stroke-width="0.75" stroke-miterlimit="10"/>
<path d="M544.417 259.82L543.687 262.717L547.14 268.749L550.074 268.666L551.017 263.101L546.927 259.976L544.417 259.82Z" fill="#9AC2D4" fill-opacity="0.1" stroke="white" stroke-opacity="0.4" stroke-width="0.75" stroke-miterlimit="10"/>
<path d="M331.404 205.426L334.021 200.401L325.548 199.248V195.137L328.058 193.299L320.516 172.7L372.956 146.391L379.555 137.462V116.406L383.008 113.437L383.951 107.488L378.612 101.757L382.065 90.3152L394.945 88.7163L404.679 75.219L410.96 73.6097L414.731 68.1174L420.069 69.4982L423.829 67.2037L441.423 72.696L446.761 67.8889L452.406 70.4119L448.953 75.219L453.042 78.6452L460.572 72.696L464.968 74.0665L464.343 77.0463L467.478 78.6452L466.853 84.1376L471.249 86.2037L470 92.8381L476.905 95.3507L479.097 101.985L476.281 104.736L477.53 106.792L486.321 106.107L488.831 110.229L495.43 108.63L503.915 110.229L502.654 112.741L493.238 115.493L492.92 120.3L497.634 126.021L495.112 130.599L490.716 128.99L484.435 137.234L486.321 142.269L480.983 143.64L479.415 147.99L482.868 150.046L482.562 155.081L478.154 156.919V159.203L482.868 160.345L485.378 167.904L490.716 167.675L497.634 177.051L493.545 180.03L496.997 184.381L504.221 183.228L518.987 196.736H527.153L538.773 214.127L533.116 219.619L534.059 234.04L541.907 233.583L542.85 246.852L552.266 253.943L555.719 260.588L552.266 261.502L547.87 257.38L541.589 258.377L528.403 255.625L517.938 262.644L527.354 268.749V282.475L465.392 279.277L397.974 229.233L387.509 227.707L352.758 206.35L331.404 205.426Z" fill="#9AC2D4" fill-opacity="0.1" stroke="white" stroke-opacity="0.4" stroke-width="0.75" stroke-miterlimit="10"/>
<path d="M244.519 188.492L245.462 175.68L255.195 167.447L254.264 163.097L262.737 161.716L269.337 151.198L262.113 143.868L265.247 141.812L262.419 138.376L253.628 139.289L250.493 134.026L251.118 119.158L246.722 115.264L252.685 105.879L256.315 110.021L262.737 103.823L263.162 99.7529L269.996 99.348L270.692 97.0016L268.04 93.5442L269.16 83.172L275.853 83.3797L279.766 88.1557L290.654 87.9584L293.023 83.8884L300.282 83.6808L304.89 80.7322H311.442L318.842 86.8371L330.285 87.9584L353.04 82.0507L371.459 73.9212L374.806 76.5584L391.28 76.0497L401.12 70.1524L404.538 70.6092L404.679 75.2191L394.945 88.7163L382.065 90.3152L378.612 101.757L383.951 107.488L383.008 113.437L379.555 116.406V137.462L372.956 146.391L320.516 172.7L268.7 192.157L244.519 188.492Z" fill="#9AC2D4" fill-opacity="0.1" stroke="white" stroke-opacity="0.4" stroke-width="0.75" stroke-miterlimit="10"/>
<path d="M229.659 275.311L234.16 259.436L233.218 246.852L241.384 230.147L244.519 188.492L268.7 192.157L320.516 172.7L328.058 193.299L325.548 195.137V199.248L334.021 200.401L331.404 205.426L326.384 208.79L279.07 221.913L302.097 246.323L294.143 249.064L289.111 258.221L273.626 261.886L266.508 271.947L255.62 278.664L229.659 275.311Z" fill="#9AC2D4" fill-opacity="0.1" stroke="white" stroke-opacity="0.4" stroke-width="0.75" stroke-miterlimit="10"/>
<path d="M242.221 222.059L235.103 224.499L228.198 224.353L227.985 220.076L235.527 215.954V212.6L230.708 212.445L228.61 204.367L234.691 194.909L243.894 198.106L242.221 222.059Z" fill="#9AC2D4" fill-opacity="0.1" stroke="white" stroke-opacity="0.4" stroke-width="0.75" stroke-miterlimit="10"/>
<path d="M242.645 176.438L240.548 180.415L232.381 179.947L226.937 197.951L217.097 218.55L219.406 222.059L212.489 228.32L219.819 252.729L225.475 273.93L229.659 275.311L234.16 259.436L233.218 246.852L241.384 230.147L242.221 222.059L235.103 224.499L228.198 224.353L227.985 220.076L235.527 215.954V212.6L230.708 212.445L228.61 204.367L234.691 194.909L243.894 198.106L244.519 188.492L245.462 175.68L242.645 176.438Z" fill="#9AC2D4" fill-opacity="0.1" stroke="white" stroke-opacity="0.4" stroke-width="0.75" stroke-miterlimit="10"/>
<path d="M217.097 218.55L209.567 226.025L212.489 228.32L219.406 222.059L217.097 218.55Z" fill="#9AC2D4" fill-opacity="0.1" stroke="white" stroke-opacity="0.4" stroke-width="0.75" stroke-miterlimit="10"/>
<path d="M209.567 226.025L203.698 230.147L192.609 229.389L191.136 232.742L187.377 232.431L187.577 228.008L183.606 227.863L180.459 232.286L172.717 232.431L166.86 226.793L162.041 228.164L157.221 225.267L158.27 221.446L146.344 221.602L135.031 218.093L118.91 221.758L116.188 225.568L109.282 225.724L106.772 230.448L92.7488 238.536L86.6681 237.321L75.9916 231.673L60.7191 230.915L59.034 228.465L52.5526 229.077L46.684 226.336L47.1082 223.897L39.7784 222.215L15.491 217.335L9.20995 217.179L3.97772 220.076L-1.66696 220.387L-5.43794 217.48L-12.5557 222.37L-12.9799 230.604L-8.78468 237.622L-11.3065 247.537L-18 254.556L-11.9311 266.454L-12.9799 271.947L-9.20891 276.069L-8.58434 450.297L275.299 450.453L275.853 447.806L265.247 441.607L260.369 433.976L251.295 433.364L245.709 424.414L241.938 414.758L242.645 406.006L247.665 405.705L247.807 403.057L242.009 400.638L239.817 395.602L233.842 391.719L232.593 384.846L225.688 371.806L218.77 365.628V361.049L209.354 349.608L205.265 340.222L206.526 333.588L198.996 321.461L193.658 317.796L194.589 309.791L185.173 303.613L179.21 294.456L178.574 290.334L172.929 285.299L175.121 278.436L171.362 271.801L166.024 269.735L166.33 265.385L171.668 259.207L176.064 262.416L176.382 271.573L186.74 283.7V293.771L195.531 300.177L197.417 304.07L206.526 312.76L211.24 312.532L215.011 308.41L215.317 300.177L219.406 294.228L221.292 283.928L225.475 273.93L212.489 228.319L209.567 226.025Z" fill="#9AC2D4" fill-opacity="0.1" stroke="white" stroke-opacity="0.4" stroke-width="0.75" stroke-miterlimit="10"/>
<path d="M464.968 74.0666L465.604 70.2562L459.523 65.8332L460.36 58.9704L458.062 56.5201L450.944 53.7791L454.927 48.4425L454.079 44.9333L458.687 43.0956L458.899 40.0431L451.569 39.2852L454.079 26.93L449.896 25.4038L451.569 20.9808L446.337 16.7032L446.125 12.436L455.552 12.7371L454.927 3.1229L462.245 2.0535L453.666 -6.17983L441.104 -4.80934L437.546 -7.86179L434.929 -17.1645L439.219 -21.1306L440.056 -25.8651L437.44 -31.8869L431.583 -33.2574L432.207 -37.7634L425.408 -38.6771L425.608 -41.9579L417.347 -46.2252L416.405 -48.8208L410.124 -48.7481L409.593 -44.6262L397.668 -47.0661L394.945 -45.3115L385.412 -46.9935L374.735 -38.2202L370.446 -38.376L366.262 -33.3405L359.663 -33.4858L356.635 -31.2017L341.456 -32.188L337.167 -35.9257L333.608 -33.4131L329.413 -34.5552L321.565 -31.2017L317.687 -32.0426L313.186 -29.447L299.057 -32.7279L296.44 -35.3962L292.669 -36.3929L290.89 -34.0257L279.695 -37.7634L277.703 -41.8022L271.634 -43.1L265.672 -38.6771L262.596 -39.3935L256.881 -45.3946L257.152 -50.9803L252.827 -53.3268L248.36 -50.8869L240.265 -51.0842L232.169 -56.888L234.82 -62.0689L230.083 -64L222.541 -59.7328L198.395 -60.3454L191.843 -62.2765L180.671 -56.5765L169.924 -56.1716L162.806 -49.153L143.963 -41.9268L143.41 -37.1508L136.009 -34.8148L124.425 -35.6246L118.568 -38.5732L112.429 -36.341L92.8903 -38.376L87.7169 -32.1672L94.8347 -25.9585L107.255 -25.6574L106.56 -23.7263L84.9241 -21.8989L81.0235 -19.1476L83.3921 -17.4241L101.681 -17.5175L102.235 -15.2853L63.4413 -14.7765L61.2023 -18.2339L56.4532 -18.4416V-12.9388H50.7378L46.413 -15.8979L34.2634 -15.0776L22.9622 -4.19677L18.3546 -3.38693L18.1071 6.10268L15.8092 9.22781L16.5398 10.8267L21.9841 10.9825L28.7837 7.54585L36.9502 7.70158L35.7011 11.8234L30.2567 14.1076L30.6692 17.8453L36.9502 21.1262L33.1792 22.9639L33.6034 25.7048L39.6724 25.9333L37.1623 30.5846L33.2853 30.6677L32.2483 33.0245L35.8071 37.6863L39.9905 38.2884L39.6724 40.2715L29.1018 40.9671L29.8325 36.077L25.8612 32.3393L22.8208 33.6371L22.7148 36.8453L25.649 38.3715L25.4369 41.7977L21.772 41.9535L21.4656 45.3901L33.6034 46.2311L35.7011 49.5846L39.2599 48.972L41.6639 51.4119L45.7413 52.0245L43.4433 58.9704L40.0966 59.5726L40.403 61.2545L43.3373 62.8535L43.7615 69.1868L47.8389 68.4289L48.8877 70.9414L52.2344 71.3983L51.1856 75.2917L45.8473 74.6791L43.7615 77.5759L56.736 78.5726L60.2949 76.8906L68.5675 77.6589L67.8368 79.8704L63.6416 80.0157L63.2292 84.8228L61.2376 89.2458L64.9025 89.8584L68.9799 83.525L76.6279 83.3797L80.1868 87.4185H83.5335L84.8887 85.5911L88.3533 85.9753L87.823 94.0529L92.4307 97.7179L100.067 99.0884L103.732 102.224L114.302 96.7316L117.767 96.6485L119.747 98.4862L122.575 97.1053L121.326 92.6824L124.566 90.4709L123.412 83.6808L125.721 81.3966L129.799 82.3829H141.006L152.413 89.3289L158.482 90.2425L166.024 100.314L176.7 104.124L181.508 102.141L198.053 100.615L200.775 96.036L203.91 95.8906L204.959 98.3305L208.73 96.96L209.142 92.2256L220.443 83.8365H226.312L236.777 91.0004L239.287 89.0174L245.155 89.6299L247.453 83.9922L251.436 84.5944L253.11 80.0157L257.717 80.3272L258.554 88.1037L248.29 96.036L252.685 105.879L256.315 110.021L262.737 103.823L263.162 99.7529L269.996 99.348L270.692 97.0015L268.04 93.5441L269.16 83.172L275.853 83.3797L279.766 88.1556L290.654 87.9584L293.023 83.8884L300.282 83.6808L304.89 80.7321H311.442L318.842 86.8371L330.285 87.9584L353.04 82.0507L371.459 73.9212L374.806 76.5584L391.28 76.0496L401.12 70.1524L404.538 70.6092L404.679 75.219L410.96 73.6097L414.731 68.1174L420.069 69.4983L423.829 67.2037L441.423 72.6961L446.761 67.889L452.406 70.4119L448.953 75.219L453.042 78.6453L460.572 72.6961L464.968 74.0666Z" fill="#9AC2D4" fill-opacity="0.1" stroke="white" stroke-opacity="0.4" stroke-width="0.75" stroke-miterlimit="10"/>
<path d="M56.2175 84.0649H48.051L46.0595 85.0513L46.7901 86.5048L54.8505 86.4321L56.2175 84.0649Z" fill="#9AC2D4" fill-opacity="0.1" stroke="white" stroke-opacity="0.4" stroke-width="0.75" stroke-miterlimit="10"/>
<path d="M555.719 260.588L562.742 257.609L562.53 248.607L570.696 247.994L570.897 255.625L579.487 258.377L587.854 253.03L593.935 254.255L592.262 260.505L605.66 271.345L605.236 280.19L609.738 287.126L614.758 288.05L615.394 298.349L623.549 311.39L637.054 312.075L651.501 319.166L652.126 323.745L660.929 328.781L673.479 332.217L674.115 337.024L680.703 339.994L687.927 337.938L701.75 344.116L713.993 337.024L721.217 337.481L734.404 328.324L750.112 327.867L756.075 332.674L764.242 361.049L800.667 366.085L805.063 370.435L814.478 368.369L835.831 372.948L842.112 372.034L859.388 377.983L868.497 375.471L868.804 364.486L873.199 362.191L874.46 357.156L872.575 350.75L876.028 347.781L881.684 350.065L883.888 348.009L883.57 343.43L890.793 340.451L905.865 340.679L909 328.095L906.172 325.811L898.323 328.552L894.564 325.354L898.017 317.339L894.246 309.334L895.495 302.689L884.512 294.913L874.778 293.999L863.784 284.385L864.102 277.522L850.279 262.187L871.95 237.01L872.575 228.091L866.93 223.741L848.712 220.076L849.654 202.913L842.749 178.888L849.654 172.939V169.046L842.112 167.904L839.921 152.34L849.336 149.132L847.769 143.64L851.846 139.518L855.935 128.99L858.764 115.95L854.993 113.209L858.445 106.792L854.993 103.366L858.834 100.054L856.041 88.4671L837.198 87.9584L829.798 77.3786L818.909 74.2223L813.748 70.1524L814.443 64.9715L811.933 62.4278L806.913 63.8502L802.446 58.6589L793.655 58.9704L789.048 61.7114L783.049 56.0114L763.499 51.1835L766.646 46.7606L763.087 42.9502L756.806 46.6048L751.149 44.4764H741.522L739.848 49.0447L719.12 48.5879L704.048 57.901L703.423 65.0649L693.583 69.3425L683.119 69.1868L686.253 79.8704L667.516 82.5387L641.768 89.6299L629.205 89.8584L624.81 86.2037L612.566 85.5081L594.666 74.5234L593.723 67.4321L574.562 65.6048L564.828 58.2748L562.318 50.4983L562.942 39.0568L556.355 40.1988L544.111 30.5846L541.589 25.5491L547.564 23.9502L544.111 17.0874L550.38 12.2803L543.168 4.73219H534.365L507.049 26.93L496.997 28.3005L482.562 24.8639L477.848 18.4579L472.191 18.2295L469.057 5.64586L462.246 2.05351L454.927 3.12291L455.552 12.7371L446.125 12.436L446.337 16.7032L451.569 20.9808L449.896 25.4038L454.079 26.93L451.569 39.2852L458.899 40.0431L458.687 43.0956L454.079 44.9333L454.927 48.4425L450.944 53.7792L458.062 56.5201L460.36 58.9704L459.523 65.8332L465.604 70.2562L464.968 74.0666L464.343 77.0463L467.478 78.6453L466.853 84.1376L471.249 86.2037L470 92.8381L476.905 95.3507L479.097 101.985L476.281 104.736L477.53 106.792L486.321 106.107L488.831 110.229L495.43 108.63L503.915 110.229L502.654 112.741L493.238 115.493L492.92 120.3L497.634 126.021L495.112 130.599L490.716 128.99L484.435 137.234L486.321 142.269L480.983 143.64L479.415 147.99L482.868 150.046L482.562 155.081L478.154 156.919V159.203L482.868 160.345L485.378 167.904L490.716 167.675L497.634 177.051L493.545 180.03L496.997 184.381L504.221 183.228L518.987 196.736H527.153L538.773 214.127L533.116 219.619L534.059 234.04L541.907 233.583L542.85 246.852L552.266 253.943L555.719 260.588Z" fill="#9AC2D4" fill-opacity="0.1" stroke="white" stroke-opacity="0.4" stroke-width="0.75" stroke-miterlimit="10"/>
<path d="M253.628 139.289L244.318 150.658V158.445L240.123 158.902L239.499 167.592L232.381 179.947L240.548 180.415L242.645 176.438L245.462 175.68L255.195 167.447L254.264 163.097L262.737 161.716L269.337 151.198L262.113 143.868L265.247 141.812L262.419 138.376L253.628 139.289Z" fill="#9AC2D4" fill-opacity="0.1" stroke="white" stroke-opacity="0.4" stroke-width="0.75" stroke-miterlimit="10"/>
<path d="M616.726 391.616L621.628 391.979L625.741 383.964V378.17L623.408 375.855L624.657 369.241L620.721 363.458L617.527 364.154L614.605 369.574L615.818 375.616L612.59 378.461L613.697 383.528L616.726 391.616Z" fill="#9AC2D4" fill-opacity="0.1" stroke="white" stroke-opacity="0.4" stroke-width="0.75" stroke-miterlimit="10"/>
<path d="M601.795 355.983L601.394 360.073L603.115 364.424L605.33 363.801L606.037 355.889L601.795 355.983Z" fill="#9AC2D4" fill-opacity="0.1" stroke="white" stroke-opacity="0.4" stroke-width="0.75" stroke-miterlimit="10"/>
</svg>
