<svg width="855" height="760" viewBox="0 0 855 760" fill="none" xmlns="http://www.w3.org/2000/svg">
<path d="M594.841 482.004L595.806 488.379L616.418 515.464L675.65 522.555L674.197 512.276L681.711 498.896L682.871 494.592L679.976 489.572L686.048 487.664L686.145 483.272L688.845 481.527L686.525 476.268L687.295 465.751L691.534 463.994L692.304 469.101L694.809 470.695L700.208 466.065L700.783 451.255L695.004 447.752L694.809 437.387L689.799 445.519L680.366 451.092L679.976 453.965L673.622 462.401L666.109 467.182L661.49 474.989H657.641L654.551 477.06L657.825 479.77L656.86 482.481L650.897 481.841L649.736 485.669L642.038 487.577L632.02 485.831L620.841 486.46L616.992 484.389L609.478 490.45L602.16 489.973L599.08 487.262V483.121L594.841 482.004Z" fill="#9AC2D4" fill-opacity="0.4" stroke="white" stroke-width="0.75" stroke-miterlimit="10"/>
<path d="M602.257 610.498L635.771 599.742L668.711 586.362L685.473 538.569L675.65 522.555L674.197 512.276L681.711 498.896L682.871 494.592L679.976 489.572L686.048 487.664L686.145 483.272L688.845 481.527L686.525 476.268L687.295 465.751L691.534 463.994L692.304 469.101L694.809 470.695L700.208 466.065L704.057 476.908L716.385 489.81L731.022 495.069H738.341L741.041 497.454L746.625 496.977L753.173 500.967L757.608 508.926L764.732 518.803L775.325 524.864L777.255 532.031L772.441 540.954L768.581 542.234L764.862 551.84L759.852 553.857L752.794 562.357L752.664 566.716L748.555 569.893L748.164 574.674L746.245 576.691L741.485 576.908L740.466 574.674L742.385 572.874V570.001L739.046 570.858L734.806 575.422V578.393L731.857 581.05L732.757 586.048L732.367 589.387L728.713 592.261L731.987 607.874L729.678 611.376H721.199L710.606 614.726L705.792 618.705L705.402 626.349L700.013 634.318L681.331 636.227L674.967 642.548L674.457 645.204L676.517 646.484L676.127 651.265L668.808 657.847L665.079 658.063L661.36 656.144L651.471 656.361L647.622 659.018L641.204 659.646L635.034 663.691L626.62 664.428L618.727 647.861L620.267 643.719L602.257 610.498Z" fill="#9AC2D4" fill-opacity="0.4" stroke="white" stroke-width="0.75" stroke-miterlimit="10"/>
<path d="M694.809 437.387L697.313 433.007L700.978 430.22L701.845 433.722L701.162 442.017L697.985 449.585L695.004 447.752L694.809 437.387Z" fill="#9AC2D4" fill-opacity="0.4" stroke="white" stroke-width="0.75" stroke-miterlimit="10"/>
<path d="M602.257 610.498L580.009 615.518L541.008 617.903L519.627 628.182L506.041 645.866L504.307 654.236L498.246 658.064L491.599 658.302L487.837 650.17L467.616 651.124L455.19 646.831L422.836 648.023L413.588 642.049L410.118 644.912L411.56 649.455L408.676 651.84V658.541L411.56 660.926L410.986 664.992L399.72 672.159L401.737 676.463L402.897 684.107L399.146 687.219L400.295 694.147L395.383 697.01L395.958 699.167L401.162 699.883L404.632 706.811L404.925 719.714L411.56 731.424L410.704 745.291L415.03 748.153L415.897 756.762L421.102 755.57L424.571 758.671L434.676 758.909L438.721 754.366L450.864 755.57L452.588 749.595L460.395 748.153L463.864 741.941L471.953 739.317L488.13 740.748L503.157 734.535L506.041 730.231L515.865 725.449L521.362 727.368L532.627 724.734L540.141 714.217L551.406 707.765H560.069L578.567 699.883L587.815 700.598L606.594 690.081L608.904 682.914L606.876 676.463L615.257 668.57L626.62 664.428L618.727 647.861L620.267 643.719L602.257 610.498Z" fill="#9AC2D4" fill-opacity="0.4" stroke="white" stroke-width="0.75" stroke-miterlimit="10"/>
<path d="M594.841 482.004L588.867 481.841L589.062 477.385L581.548 476.908L577.504 469.578L571.15 461.924L571.53 454.594L565.567 451.417V447.427L560.362 439.946L564.211 434.839L565.176 428.789L560.937 427.033L561.132 419.389L553.239 415.724L550.539 411.105L545.725 411.257L544.185 407.603L540.336 404.415L543.795 402.659L543.415 400.111L534.362 399.157L535.706 393.258L532.237 388L528.193 387.685L527.813 377.645L525.309 374.295L509.316 375.574L507.397 367.128L502.767 362.824L445.757 359.484L383.728 307.223L374.1 305.63L350.214 288.097L342.125 283.327L322.479 282.362L317.86 285.875L274.327 299.58L295.514 325.07L288.195 327.933L283.565 337.496L269.318 341.323L262.769 351.829L252.751 358.844L228.865 355.342L226.165 365.534L224.626 375.097L219.616 386.569L232.335 387.523L246.592 406.323L246.972 412.059L265.079 438.504L264.309 444.565L267.009 447.427L270.858 448.067L274.707 451.992L274.067 455.18L278.654 460.178L277.211 469.253L282.709 476.192L283.565 481.928L290.212 482.643L293.974 486.699L302.355 489.81L309.283 500.566V506.54L315.93 515.865L319.107 530.199L315.062 540.477L319.974 544.782L322.284 551.948L319.681 554.811L335.284 578.957H340.781L353.206 590.667L356.665 590.428L356.383 596.403L361.295 599.265L366.586 617.274L371.595 621.416L371.216 627.466L376.995 636.227L391.046 644.673L390.277 651.84L399.655 663.268L399.72 672.159L410.986 664.992L411.56 660.926L408.676 658.541V651.84L411.56 649.455L410.118 644.912L413.588 642.049L422.836 648.023L455.19 646.831L467.616 651.124L487.837 650.17L491.599 658.302L498.246 658.064L504.307 654.236L506.041 645.866L519.627 628.182L541.008 617.903L580.009 615.518L602.257 610.498L635.771 599.742L668.711 586.362L685.473 538.569L675.65 522.555L616.418 515.464L595.806 488.379L594.841 482.004Z" fill="#9AC2D4" fill-opacity="0.4" stroke="white" stroke-width="0.75" stroke-miterlimit="10"/>
<path d="M385.788 666.239L388.227 665.707L388.097 663.051L383.988 662.52L378.719 659.224L377.569 661.24L381.548 664.536L385.788 666.239Z" fill="#9AC2D4" fill-opacity="0.4" stroke="white" stroke-width="0.75" stroke-miterlimit="10"/>
<path d="M525.308 374.295L523.379 366.488L518.564 362.986L516.45 354.865L509.511 353.586L513.75 348.804L517.599 349.129V346.256L515.095 341.952L515.865 337.658L503.732 334.785L494.104 342.114L502.767 348.49V362.824L507.397 367.128L509.316 375.574L525.308 374.295Z" fill="#9AC2D4" fill-opacity="0.4" stroke="white" stroke-width="0.75" stroke-miterlimit="10"/>
<path d="M518.467 339.165L517.795 342.19L520.971 348.49L523.671 348.403L524.539 342.592L520.776 339.328L518.467 339.165Z" fill="#9AC2D4" fill-opacity="0.4" stroke="white" stroke-width="0.75" stroke-miterlimit="10"/>
<path d="M322.479 282.362L324.886 277.114L317.09 275.91V271.617L319.399 269.698L312.46 248.186L360.709 220.711L366.781 211.387V189.398L369.958 186.297L370.825 180.085L365.914 174.1L369.09 162.151L380.941 160.482L389.897 146.386L395.676 144.706L399.146 138.97L404.057 140.412L407.516 138.016L423.704 143.752L428.615 138.732L433.809 141.366L430.632 146.386L434.395 149.964L441.323 143.752L445.367 145.183L444.792 148.295L447.677 149.964L447.102 155.7L451.146 157.858L449.997 164.786L456.35 167.41L458.367 174.338L455.776 177.212L456.925 179.358L465.014 178.643L467.323 182.947L473.395 181.277L481.201 182.947L480.041 185.571L471.378 188.444L471.085 193.464L475.422 199.439L473.102 204.22L469.058 202.539L463.279 211.148L465.014 216.407L460.102 217.838L458.66 222.381L461.837 224.528L461.555 229.787L457.5 231.706V234.091L461.837 235.284L464.146 243.177L469.058 242.938L475.422 252.729L471.66 255.841L474.837 260.384L481.483 259.18L495.069 273.286H502.583L513.273 291.448L508.069 297.183L508.936 312.243L516.157 311.766L517.025 325.623L525.688 333.028L528.865 339.968L525.688 340.922L521.644 336.617L515.865 337.658L503.732 334.785L494.104 342.114L502.767 348.49V362.823L445.757 359.484L383.728 307.223L374.1 305.63L342.125 283.327L322.479 282.362Z" fill="#9AC2D4" fill-opacity="0.4" stroke="white" stroke-width="0.75" stroke-miterlimit="10"/>
<path d="M242.537 264.678L243.405 251.298L252.361 242.7L251.504 238.157L259.3 236.715L265.372 225.732L258.725 218.077L261.609 215.93L259.007 212.341L250.919 213.295L248.034 207.798L248.609 192.272L244.565 188.206L250.051 178.404L253.391 182.73L259.3 176.257L259.69 172.007L265.979 171.584L266.618 169.134L264.179 165.523L265.209 154.692L271.367 154.909L274.967 159.896L284.986 159.69L287.165 155.44L293.844 155.223L298.083 152.144H304.112L310.921 158.519L321.449 159.69L342.385 153.521L359.332 145.031L362.411 147.785L377.569 147.254L386.623 141.095L389.767 141.572L389.897 146.386L380.941 160.482L369.09 162.151L365.914 174.1L370.825 180.085L369.958 186.298L366.781 189.398V211.387L360.709 220.711L312.46 248.186L264.786 268.505L242.537 264.678Z" fill="#9AC2D4" fill-opacity="0.4" stroke="white" stroke-width="0.75" stroke-miterlimit="10"/>
<path d="M228.865 355.342L233.007 338.764L232.139 325.623L239.653 308.178L242.537 264.678L264.786 268.505L312.46 248.186L319.399 269.698L317.09 271.617V275.91L324.886 277.114L322.479 282.362L317.86 285.875L274.327 299.58L295.514 325.07L288.195 327.933L283.565 337.496L269.318 341.323L262.769 351.829L252.751 358.844L228.865 355.342Z" fill="#9AC2D4" fill-opacity="0.4" stroke="white" stroke-width="0.75" stroke-miterlimit="10"/>
<path d="M240.423 299.731L233.874 302.279L227.521 302.127L227.325 297.66L234.265 293.356V289.854L229.83 289.691L227.9 281.256L233.495 271.378L241.963 274.718L240.423 299.731Z" fill="#9AC2D4" fill-opacity="0.4" stroke="white" stroke-width="0.75" stroke-miterlimit="10"/>
<path d="M240.813 252.09L238.883 256.242L231.37 255.754L226.36 274.555L217.307 296.067L219.432 299.731L213.068 306.269L219.812 331.76L225.016 353.9L228.865 355.342L233.007 338.764L232.139 325.623L239.653 308.178L240.423 299.731L233.874 302.279L227.521 302.127L227.325 297.66L234.265 293.356V289.854L229.83 289.691L227.9 281.256L233.495 271.378L241.963 274.718L242.537 264.678L243.405 251.298L240.813 252.09Z" fill="#9AC2D4" fill-opacity="0.4" stroke="white" stroke-width="0.75" stroke-miterlimit="10"/>
<path d="M217.307 296.067L210.379 303.873L213.068 306.269L219.432 299.731L217.307 296.067Z" fill="#9AC2D4" fill-opacity="0.4" stroke="white" stroke-width="0.75" stroke-miterlimit="10"/>
<path d="M210.379 303.873L204.979 308.178L194.776 307.386L193.421 310.888L189.962 310.563L190.147 305.944L186.493 305.792L183.598 310.411L176.474 310.563L171.086 304.675L166.651 306.107L162.216 303.082L163.181 299.092L152.209 299.254L141.8 295.589L126.968 299.417L124.463 303.396L118.109 303.559L115.8 308.492L102.897 316.938L97.3027 315.67L87.4794 309.771L73.4276 308.98L71.8771 306.421L65.9138 307.061L60.5142 304.198L60.9046 301.65L54.1605 299.894L31.8143 294.798L26.0352 294.635L21.2212 297.66L16.0276 297.986L12.5581 294.95L6.00921 300.057L5.61889 308.655L9.4788 315.984L7.15851 326.339L1 333.668L6.58386 346.094L5.61889 351.829L9.08847 356.134L9.66312 538.081L270.858 538.244L271.367 535.479L261.609 529.006L257.12 521.037L248.772 520.397L243.632 511.051L240.163 500.967L240.813 491.827L245.432 491.513L245.562 488.748L240.228 486.221L238.211 480.963L232.714 476.908L231.565 469.73L225.211 456.112L218.847 449.661V444.879L210.183 432.931L206.421 423.129L207.581 416.201L200.653 403.537L195.741 399.71L196.598 391.35L187.935 384.899L182.448 375.336L181.863 371.031L176.669 365.773L178.686 358.606L175.227 351.677L170.316 349.52L170.598 344.977L175.509 338.526L179.554 341.876L179.846 351.439L189.377 364.103V374.62L197.465 381.31L199.2 385.376L207.581 394.451L211.918 394.212L215.388 389.908L215.67 381.31L219.432 375.097L221.167 364.341L225.016 353.9L213.068 306.269L210.379 303.873Z" fill="#9AC2D4" fill-opacity="0.4" stroke="white" stroke-width="0.75" stroke-miterlimit="10"/>
<path d="M445.367 145.183L445.953 141.204L440.358 136.585L441.128 129.418L439.013 126.859L432.465 123.997L436.129 118.424L435.349 114.759L439.588 112.84L439.783 109.652L433.039 108.861L435.349 95.9582L431.5 94.3644L433.039 89.7455L428.225 85.2784L428.03 80.8221L436.704 81.1366L436.129 71.0965L442.862 69.9797L434.969 61.3816L423.411 62.8128L420.137 59.6251L417.73 49.9103L421.676 45.7685L422.446 40.8243L420.039 34.5357L414.65 33.1045L415.225 28.3989L408.969 27.4447L409.153 24.0185L401.553 19.5623L400.685 16.8517L394.906 16.9276L394.418 21.232L383.446 18.684L380.941 20.5164L372.17 18.7599L362.346 27.9218L358.4 27.7592L354.551 33.0178L348.479 32.866L345.692 35.2513L331.727 34.2213L327.781 30.318L324.506 32.9419L320.646 31.7492L313.425 35.2513L309.858 34.3731L305.716 37.0837L292.716 33.6575L290.309 30.871L286.84 29.8301L285.202 32.3022L274.902 28.3989L273.07 24.1812L267.486 22.8259L262 27.4447L259.17 26.6966L253.911 20.4297L254.16 14.5964L250.181 12.146L246.072 14.694L238.623 14.488L231.174 8.42708L233.614 3.0167L229.255 1L222.316 5.45625L200.1 4.81654L194.072 2.79985L183.793 8.75235L173.905 9.17521L167.356 16.5047L150.019 24.0511L149.509 29.0386L142.7 31.4781L132.042 30.6324L126.653 27.5532L121.004 29.8843L103.027 27.7592L98.2676 34.243L104.816 40.7267L116.244 41.0412L115.605 43.0579L95.698 44.9661L92.1091 47.8394L94.2885 49.6392L111.116 49.5417L111.626 51.8728L75.9322 52.4041L73.8721 48.7935L69.5026 48.5767V54.3232H64.244L60.2648 51.2331L49.0863 52.0896L38.6884 63.4525L34.449 64.2982L34.2213 74.2082L32.107 77.4718L32.7792 79.1415L37.7884 79.3042L44.0445 75.7153L51.5584 75.878L50.4091 80.1824L45.3998 82.5678L45.7793 86.4711L51.5584 89.8973L48.0888 91.8164L48.4791 94.6788L54.063 94.9173L51.7535 99.7747L48.1864 99.8615L47.2322 102.323L50.5066 107.191L54.3557 107.82L54.063 109.891L44.3373 110.617L45.0095 105.51L41.3556 101.607L38.5583 102.962L38.4607 106.313L41.1604 107.907L40.9653 111.485L37.5933 111.647L37.3114 115.236L48.4791 116.114L50.4091 119.616L53.6835 118.977L55.8953 121.525L59.6468 122.164L57.5326 129.418L54.4533 130.047L54.7352 131.803L57.435 133.473L57.8253 140.087L61.5768 139.295L62.5418 141.919L65.621 142.396L64.656 146.462L59.7444 145.823L57.8253 148.848L69.7628 149.889L73.0373 148.132L80.6487 148.934L79.9764 151.244L76.1165 151.396L75.737 156.416L73.9047 161.035L77.2767 161.674L81.0281 155.06L88.0649 154.909L91.3393 159.126H94.4186L95.6655 157.218L98.8531 157.619L98.3652 166.055L102.605 169.882L109.631 171.313L113.003 174.588L122.728 168.852L125.916 168.765L127.737 170.684L130.34 169.242L129.19 164.623L132.172 162.314L131.109 155.223L133.235 152.838L136.986 153.868H147.297L157.793 161.121L163.377 162.075L170.316 172.593L180.139 176.572L184.563 174.501L199.786 172.907L202.29 168.126L205.174 167.974L206.139 170.522L209.609 169.091L209.988 164.146L220.386 155.386H225.786L235.414 162.867L237.723 160.796L243.123 161.436L245.237 155.548L248.902 156.177L250.441 151.396L254.681 151.721L255.451 159.842L246.007 168.126L250.051 178.404L253.391 182.73L259.3 176.257L259.69 172.007L265.979 171.584L266.618 169.134L264.179 165.523L265.209 154.692L271.367 154.909L274.967 159.896L284.986 159.69L287.165 155.44L293.844 155.223L298.083 152.144H304.112L310.921 158.519L321.449 159.69L342.385 153.521L359.332 145.031L362.411 147.785L377.569 147.254L386.623 141.095L389.767 141.572L389.897 146.386L395.676 144.706L399.146 138.97L404.057 140.412L407.516 138.016L423.704 143.752L428.615 138.732L433.809 141.366L430.632 146.386L434.395 149.964L441.323 143.752L445.367 145.183Z" fill="#9AC2D4" fill-opacity="0.4" stroke="white" stroke-width="0.75" stroke-miterlimit="10"/>
<path d="M101.098 27.0219L95.5787 34.243H89.0299L77.8513 31.5866L74.3817 34.8827L64.3741 33.8201L63.214 40.4015L53.3257 47.9478L49.4766 47.8394L36.7584 60.2649L34.8393 59.2023L35.8585 55.0605L48.1864 45.4974L47.5466 43.1663L41.5074 45.3999L32.7792 45.2914V40.9328L38.1788 36.791L37.1487 28.6157L39.5883 25.3196L44.977 24.1487L45.7468 17.036L38.8185 13.1002L38.9486 9.59808L43.1771 9.48966L43.8277 4.28528L50.8861 3.97085L53.1956 1.31445L58.9746 1.20602L64.1139 7.36454L66.8137 4.61055L69.7628 5.78154L72.3325 3.86243L75.672 4.07927L76.702 7.15853L73.8721 11.8316L79.0114 18.8359L86.2 20.961L87.3601 24.3655L101.098 27.0219Z" fill="#9AC2D4" fill-opacity="0.4" stroke="white" stroke-width="0.75" stroke-miterlimit="10"/>
<path d="M30.2096 56.7627L25.3305 57.1856L23.9209 59.6251L26.1003 60.5793L30.3397 59.2023L30.2096 56.7627Z" fill="#9AC2D4" fill-opacity="0.4" stroke="white" stroke-width="0.75" stroke-miterlimit="10"/>
<path d="M69.2858 155.624H61.772L59.9396 156.654L60.6118 158.172L68.028 158.096L69.2858 155.624Z" fill="#9AC2D4" fill-opacity="0.4" stroke="white" stroke-width="0.75" stroke-miterlimit="10"/>
<path d="M528.865 339.968L535.327 336.856L535.132 327.455L542.646 326.816L542.83 334.785L550.734 337.658L558.432 332.074L564.027 333.354L562.487 339.881L574.815 351.2L574.425 360.438L578.567 367.681L583.186 368.646L583.771 379.402L591.274 393.02L603.699 393.735L616.992 401.141L617.567 405.922L625.666 411.181L637.213 414.77L637.799 419.79L643.86 422.891L650.506 420.744L663.225 427.195L674.49 419.79L681.136 420.267L693.269 410.704L707.722 410.227L713.208 415.247L720.722 444.879L754.236 450.138L758.28 454.681L766.943 452.523L786.59 457.305L792.369 456.35L808.264 462.563L816.645 459.939L816.927 448.468L820.971 446.072L822.132 440.813L820.397 434.123L823.573 431.023L828.778 433.408L830.805 431.261L830.513 426.48L837.159 423.368L851.027 423.606L853.911 410.465L851.309 408.08L844.087 410.942L840.629 407.603L843.806 399.232L840.336 390.873L841.485 383.934L831.38 375.813L822.424 374.859L812.308 364.819L812.601 357.652L799.883 341.637L819.822 315.344L820.397 306.031L815.203 301.488L798.441 297.66L799.308 279.738L792.954 254.648L799.308 248.436V244.37L792.369 243.177L790.352 226.924L799.015 223.574L797.573 217.838L801.325 213.534L805.087 202.54L807.689 188.921L804.22 186.059L807.397 179.358L804.22 175.78L807.754 172.322L805.185 160.221L787.848 159.69L781.039 148.642L771.02 145.346L766.271 141.095L766.911 135.685L764.601 133.029L759.983 134.514L755.873 129.093L747.785 129.418L743.545 132.28L738.027 126.328L720.039 121.286L722.934 116.667L719.659 112.688L713.88 116.505L708.676 114.282H699.818L698.278 119.053L679.206 118.576L665.339 128.301L664.764 135.783L655.711 140.25L646.083 140.087L648.967 151.244L631.727 154.03L608.036 161.436L596.478 161.674L592.434 157.858L581.169 157.131L564.699 145.66L563.832 138.255L546.202 136.346L537.246 128.692L534.937 120.571L535.511 108.622L529.45 109.815L518.185 99.7747L515.865 94.5161L521.362 92.8464L518.185 85.6795L523.953 80.6595L517.318 72.777H509.218L484.085 95.9582L474.837 97.3894L461.555 93.8005L457.218 87.1107L452.014 86.8722L449.129 73.7312L442.862 69.9797L436.129 71.0964L436.704 81.1366L428.03 80.8221L428.225 85.2784L433.039 89.7455L431.5 94.3643L435.349 95.9582L433.039 108.861L439.783 109.652L439.588 112.84L435.349 114.759L436.129 118.424L432.465 123.997L439.013 126.859L441.128 129.418L440.358 136.585L445.953 141.204L445.367 145.183L444.792 148.295L447.677 149.964L447.102 155.7L451.146 157.858L449.997 164.786L456.35 167.41L458.367 174.338L455.776 177.212L456.925 179.358L465.014 178.643L467.323 182.947L473.395 181.277L481.201 182.947L480.041 185.571L471.378 188.444L471.085 193.464L475.422 199.439L473.102 204.22L469.058 202.54L463.279 211.148L465.014 216.407L460.102 217.838L458.66 222.381L461.837 224.528L461.555 229.787L457.5 231.706V234.091L461.837 235.284L464.146 243.177L469.058 242.938L475.422 252.729L471.66 255.841L474.837 260.384L481.483 259.18L495.069 273.287H502.583L513.273 291.448L508.069 297.183L508.936 312.243L516.157 311.766L517.025 325.623L525.688 333.028L528.865 339.968Z" fill="#9AC2D4" fill-opacity="0.4" stroke="white" stroke-width="0.75" stroke-miterlimit="10"/>
<path d="M250.919 213.295L242.353 225.168V233.3L238.493 233.777L237.918 242.852L231.37 255.754L238.883 256.242L240.813 252.09L243.405 251.298L252.361 242.7L251.504 238.157L259.3 236.715L265.372 225.732L258.725 218.077L261.609 215.93L259.007 212.341L250.919 213.295Z" fill="#9AC2D4" fill-opacity="0.4" stroke="white" stroke-width="0.75" stroke-miterlimit="10"/>
<path d="M584.996 476.799L589.507 477.179L593.291 468.808V462.758L591.144 460.341L592.293 453.434L588.672 447.395L585.733 448.121L583.045 453.781L584.161 460.091L581.19 463.062L582.21 468.353L584.996 476.799Z" fill="#9AC2D4" fill-opacity="0.4" stroke="white" stroke-width="0.75" stroke-miterlimit="10"/>
<path d="M571.259 439.588L570.89 443.86L572.473 448.403L574.512 447.752L575.162 439.49L571.259 439.588Z" fill="#9AC2D4" fill-opacity="0.4" stroke="white" stroke-width="0.75" stroke-miterlimit="10"/>
<path d="M406.601 250.606C406.601 251.984 406.575 253.128 406.549 253.973L407.836 254.493C407.901 254.519 407.914 255 407.836 255H403.884C403.806 255 403.819 254.519 403.884 254.493L405.171 253.973C405.145 253.128 405.119 251.984 405.119 250.606C405.119 248.877 405.145 248.24 405.171 247.447L403.949 246.927C403.884 246.901 403.884 246.355 403.949 246.355H407.771C407.836 246.355 407.836 246.901 407.771 246.927L406.549 247.447C406.575 248.24 406.601 248.877 406.601 250.606ZM412.011 254.493C412.102 254.532 412.102 255 412.011 255H408.67C408.592 255 408.605 254.532 408.67 254.493L409.619 254.012C409.593 253.492 409.567 252.66 409.567 251.828C409.567 251.074 409.593 250.333 409.619 249.839L408.579 249.202C408.514 249.163 408.501 248.669 408.592 248.656C408.813 248.63 409.762 248.526 410.75 248.526C410.815 248.76 410.854 249.085 410.854 249.553C411.309 249.137 412.024 248.435 412.7 248.396C413.324 248.357 413.35 248.695 413.298 249.228C413.259 249.657 413.09 250.008 412.947 250.125C412.869 250.138 412.817 250.138 412.739 250.125C412.297 249.943 411.881 249.748 411.621 249.748C411.218 249.748 410.919 249.878 410.867 249.917C410.867 250.151 410.867 250.437 410.867 250.749C410.867 251.659 410.867 252.946 410.802 254.012L412.011 254.493ZM417.888 255.13C417.394 255.078 417.134 254.753 416.978 254.259C416.484 254.753 415.925 255.169 415.314 255.169C414.235 255.169 413.624 254.597 413.585 253.609C413.559 252.79 413.936 252.179 414.56 251.841C415.197 251.659 416.25 251.49 416.9 251.438C416.9 251.256 416.9 251.087 416.9 250.957C416.9 249.605 416.692 249.514 415.951 249.514C415.223 249.514 414.586 249.696 414.183 249.8C414.131 249.813 413.923 249.462 414.001 249.371C414.456 248.981 415.509 248.422 416.354 248.422C417.537 248.422 418.187 249.033 418.187 250.736C418.187 251.529 418.161 252.959 418.135 253.817L418.252 253.973L419.318 254.077C419.383 254.077 419.396 254.48 419.344 254.519C419.084 254.727 418.317 255.13 417.888 255.13ZM414.924 253.388C414.95 254.09 415.301 254.233 415.821 254.233C416.198 254.233 416.653 254.038 416.926 253.804C416.913 253.31 416.9 252.647 416.9 252.049C416.393 252.088 415.561 252.244 415.301 252.361C415.08 252.569 414.911 252.868 414.924 253.388ZM426.485 257.262C426.55 257.288 426.563 257.769 426.485 257.769H423.027C422.962 257.769 422.975 257.288 423.027 257.262L424.236 256.781C424.223 256.118 424.197 255.221 424.197 254.246C423.768 254.649 423.131 255.13 422.39 255.13C420.895 255.13 419.816 253.908 419.816 251.997C419.816 249.566 421.363 248.474 422.923 248.474C423.729 248.474 424.08 248.617 424.457 248.838C424.626 248.578 424.717 248.5 424.782 248.448C424.86 248.383 425.562 248.383 425.562 248.461C425.536 248.942 425.497 249.618 425.497 250.385V252.92C425.497 254.493 425.471 255.962 425.445 256.781L426.485 257.262ZM421.22 251.763C421.22 253.661 421.61 254.051 422.741 254.051C423.3 254.051 423.963 253.934 424.184 253.817C424.184 253.518 424.184 253.219 424.184 252.907C424.184 251.594 424.21 250.762 424.249 250.047C424.015 249.67 423.534 249.345 422.897 249.345C422.39 249.345 422.026 249.423 421.727 249.631C421.441 250.047 421.22 250.736 421.22 251.763Z" fill="#156082"/>
<path d="M647.309 263.606C647.309 264.984 647.283 266.128 647.257 266.973L648.544 267.493C648.609 267.519 648.622 268 648.544 268H644.592C644.514 268 644.527 267.519 644.592 267.493L645.879 266.973C645.853 266.128 645.827 264.984 645.827 263.606C645.827 261.877 645.853 261.24 645.879 260.447L644.657 259.927C644.592 259.901 644.592 259.355 644.657 259.355H648.479C648.544 259.355 648.544 259.901 648.479 259.927L647.257 260.447C647.283 261.24 647.309 261.877 647.309 263.606ZM652.719 267.493C652.81 267.532 652.81 268 652.719 268H649.378C649.3 268 649.313 267.532 649.378 267.493L650.327 267.012C650.301 266.492 650.275 265.66 650.275 264.828C650.275 264.074 650.301 263.333 650.327 262.839L649.287 262.202C649.222 262.163 649.209 261.669 649.3 261.656C649.521 261.63 650.47 261.526 651.458 261.526C651.523 261.76 651.562 262.085 651.562 262.553C652.017 262.137 652.732 261.435 653.408 261.396C654.032 261.357 654.058 261.695 654.006 262.228C653.967 262.657 653.798 263.008 653.655 263.125C653.577 263.138 653.525 263.138 653.447 263.125C653.005 262.943 652.589 262.748 652.329 262.748C651.926 262.748 651.627 262.878 651.575 262.917C651.575 263.151 651.575 263.437 651.575 263.749C651.575 264.659 651.575 265.946 651.51 267.012L652.719 267.493ZM658.596 268.13C658.102 268.078 657.842 267.753 657.686 267.259C657.192 267.753 656.633 268.169 656.022 268.169C654.943 268.169 654.332 267.597 654.293 266.609C654.267 265.79 654.644 265.179 655.268 264.841C655.905 264.659 656.958 264.49 657.608 264.438C657.608 264.256 657.608 264.087 657.608 263.957C657.608 262.605 657.4 262.514 656.659 262.514C655.931 262.514 655.294 262.696 654.891 262.8C654.839 262.813 654.631 262.462 654.709 262.371C655.164 261.981 656.217 261.422 657.062 261.422C658.245 261.422 658.895 262.033 658.895 263.736C658.895 264.529 658.869 265.959 658.843 266.817L658.96 266.973L660.026 267.077C660.091 267.077 660.104 267.48 660.052 267.519C659.792 267.727 659.025 268.13 658.596 268.13ZM655.632 266.388C655.658 267.09 656.009 267.233 656.529 267.233C656.906 267.233 657.361 267.038 657.634 266.804C657.621 266.31 657.608 265.647 657.608 265.049C657.101 265.088 656.269 265.244 656.009 265.361C655.788 265.569 655.619 265.868 655.632 266.388ZM663.553 267.493C663.592 267.519 663.618 268 663.553 268H660.537C660.459 268 660.472 267.532 660.537 267.493L661.486 267.012C661.46 266.492 661.434 265.66 661.434 264.828C661.434 264.074 661.46 263.333 661.486 262.839L660.446 262.202C660.381 262.163 660.368 261.669 660.459 261.656C660.68 261.63 661.629 261.526 662.617 261.526C662.682 261.76 662.708 262.046 662.721 262.488C663.15 262.189 664.138 261.461 664.944 261.461C666.179 261.461 666.725 262.072 666.751 263.788C666.764 264.568 666.725 265.933 666.608 267.012L667.57 267.493C667.622 267.519 667.648 268 667.57 268H664.515C664.437 268 664.463 267.519 664.515 267.493L665.36 267.012C665.399 266.232 665.425 265.101 665.425 264.334C665.425 263.034 665.386 262.644 664.554 262.644C663.735 262.644 663.007 262.826 662.734 262.904C662.734 263.125 662.734 263.385 662.734 263.684C662.734 264.594 662.721 266.076 662.669 267.012L663.553 267.493Z" fill="#156082"/>
<path d="M399.911 475.2C399.703 475.395 399.56 475.746 399.56 476.11C399.56 476.773 399.768 477.124 400.418 477.462C401.068 477.826 401.601 477.969 402.355 478.307C403.252 478.697 403.967 479.425 403.967 480.634C403.967 482.038 402.901 483.234 400.691 483.234C399.664 483.234 398.715 482.909 398.299 482.545C398.091 482.363 398.078 482.285 398.078 482.09L398.104 480.309C398.104 480.231 398.572 480.231 398.611 480.309L399.547 482.259C399.872 482.35 400.418 482.389 400.717 482.389C401.978 482.389 402.641 481.882 402.641 480.959C402.641 480.413 402.355 480.01 401.77 479.724C401.055 479.373 400.379 479.204 399.651 478.788C398.728 478.268 398.247 477.579 398.247 476.526C398.247 475.265 399.261 474.121 401.159 474.121C402.056 474.121 402.693 474.251 403.226 474.472C403.499 474.576 403.525 474.667 403.538 474.914L403.642 476.63C403.642 476.734 403.2 476.708 403.148 476.63L402.16 475.044C401.861 474.979 401.653 474.953 401.146 474.953C400.613 474.953 400.158 475.044 399.911 475.2ZM409.384 483.13C408.89 483.078 408.63 482.753 408.474 482.259C407.98 482.753 407.421 483.169 406.81 483.169C405.731 483.169 405.12 482.597 405.081 481.609C405.055 480.79 405.432 480.179 406.056 479.841C406.693 479.659 407.746 479.49 408.396 479.438C408.396 479.256 408.396 479.087 408.396 478.957C408.396 477.605 408.188 477.514 407.447 477.514C406.719 477.514 406.082 477.696 405.679 477.8C405.627 477.813 405.419 477.462 405.497 477.371C405.952 476.981 407.005 476.422 407.85 476.422C409.033 476.422 409.683 477.033 409.683 478.736C409.683 479.529 409.657 480.959 409.631 481.817L409.748 481.973L410.814 482.077C410.879 482.077 410.892 482.48 410.84 482.519C410.58 482.727 409.813 483.13 409.384 483.13ZM406.42 481.388C406.446 482.09 406.797 482.233 407.317 482.233C407.694 482.233 408.149 482.038 408.422 481.804C408.409 481.31 408.396 480.647 408.396 480.049C407.889 480.088 407.057 480.244 406.797 480.361C406.576 480.569 406.407 480.868 406.42 481.388ZM416.901 483.13C416.498 483.078 416.121 482.779 416.004 482.116C415.601 482.415 414.574 483.156 413.755 483.156C412.507 483.156 412.026 482.519 411.974 480.816C411.948 480.01 412 478.697 412.065 477.878L411.129 477.358C411.064 477.319 411.064 476.812 411.142 476.799C411.48 476.734 411.87 476.682 412.338 476.63C412.819 476.578 413.274 476.539 413.274 476.539C413.365 476.916 413.326 477.501 413.3 478.203C413.274 478.736 413.248 479.542 413.261 480.309C413.287 481.609 413.313 482.064 414.145 482.064C414.925 482.064 415.653 481.856 415.978 481.752C415.939 481.167 415.939 480.66 415.939 480.101C415.939 479.23 415.991 478.463 416.017 477.865L415.068 477.384C415.003 477.358 414.99 476.812 415.068 476.799C415.263 476.747 415.64 476.695 416.303 476.604C416.914 476.526 417.213 476.513 417.213 476.513C417.317 476.89 417.291 477.93 417.278 478.827C417.265 479.997 417.239 481.206 417.2 481.817L417.317 481.973L418.383 482.077C418.448 482.077 418.461 482.48 418.409 482.519C418.149 482.727 417.33 483.13 416.901 483.13ZM425.855 482.519C425.595 482.727 424.776 483.13 424.347 483.13C423.853 483.052 423.645 482.714 423.476 482.194V482.168C423.047 482.571 422.397 483.13 421.604 483.13C420.057 483.13 419.056 481.817 419.03 480.114C418.991 477.644 420.538 476.474 422.098 476.474C422.631 476.474 423.086 476.539 423.411 476.721C423.424 475.967 423.45 475.252 423.463 474.758L422.436 474.342C422.358 474.303 422.371 473.731 422.436 473.731C422.436 473.731 423.71 473.523 424.581 473.458C424.698 474.004 424.737 475.499 424.724 477.657C424.724 479.048 424.685 480.959 424.646 481.817L424.763 481.973L425.829 482.077C425.894 482.077 425.907 482.48 425.855 482.519ZM420.434 479.737C420.434 481.492 420.811 482.051 421.89 482.051C422.501 482.051 423.177 481.908 423.437 481.804C423.385 480.842 423.398 479.243 423.398 477.995C423.125 477.605 422.696 477.345 422.085 477.345C421.591 477.345 421.214 477.436 420.941 477.631C420.59 478.151 420.434 478.866 420.434 479.737ZM427.732 475.395C427.16 475.395 426.822 474.979 426.822 474.433C426.822 473.9 427.16 473.471 427.732 473.471C428.304 473.471 428.655 473.9 428.655 474.433C428.655 474.979 428.304 475.395 427.732 475.395ZM426.38 476.656C426.601 476.63 427.602 476.526 428.59 476.526C428.655 476.682 428.668 478.06 428.668 479.438C428.668 480.426 428.642 481.44 428.629 482.012L429.591 482.493C429.643 482.519 429.669 483 429.591 483H426.328C426.25 483 426.263 482.519 426.328 482.493L427.381 482.012C427.355 481.492 427.329 480.829 427.329 479.958C427.329 479.009 427.368 478.372 427.381 477.839L426.367 477.202C426.302 477.163 426.289 476.669 426.38 476.656ZM435.546 480.01L434.753 481.973L436.053 482.493C436.118 482.519 436.118 483 436.04 483H432.491C432.413 483 432.439 482.519 432.504 482.493L433.726 481.973L437.106 474.316C437.158 474.212 437.769 474.238 437.808 474.316C438.159 474.966 439.147 477.345 439.667 478.619C440.122 479.737 440.655 481.128 440.967 481.973L442.072 482.493C442.15 482.532 442.137 483 442.059 483H438.289C438.211 483 438.237 482.519 438.302 482.493L439.446 481.973C439.212 481.466 438.913 480.751 438.627 480.01H435.546ZM435.832 479.295H438.341C437.977 478.372 437.444 476.955 437.171 476.136L435.832 479.295ZM445.972 482.493C446.063 482.532 446.063 483 445.972 483H442.631C442.553 483 442.566 482.532 442.631 482.493L443.58 482.012C443.554 481.492 443.528 480.66 443.528 479.828C443.528 479.074 443.554 478.333 443.58 477.839L442.54 477.202C442.475 477.163 442.462 476.669 442.553 476.656C442.774 476.63 443.723 476.526 444.711 476.526C444.776 476.76 444.815 477.085 444.815 477.553C445.27 477.137 445.985 476.435 446.661 476.396C447.285 476.357 447.311 476.695 447.259 477.228C447.22 477.657 447.051 478.008 446.908 478.125C446.83 478.138 446.778 478.138 446.7 478.125C446.258 477.943 445.842 477.748 445.582 477.748C445.179 477.748 444.88 477.878 444.828 477.917C444.828 478.151 444.828 478.437 444.828 478.749C444.828 479.659 444.828 480.946 444.763 482.012L445.972 482.493ZM451.85 483.13C451.356 483.078 451.096 482.753 450.94 482.259C450.446 482.753 449.887 483.169 449.276 483.169C448.197 483.169 447.586 482.597 447.547 481.609C447.521 480.79 447.898 480.179 448.522 479.841C449.159 479.659 450.212 479.49 450.862 479.438C450.862 479.256 450.862 479.087 450.862 478.957C450.862 477.605 450.654 477.514 449.913 477.514C449.185 477.514 448.548 477.696 448.145 477.8C448.093 477.813 447.885 477.462 447.963 477.371C448.418 476.981 449.471 476.422 450.316 476.422C451.499 476.422 452.149 477.033 452.149 478.736C452.149 479.529 452.123 480.959 452.097 481.817L452.214 481.973L453.28 482.077C453.345 482.077 453.358 482.48 453.306 482.519C453.046 482.727 452.279 483.13 451.85 483.13ZM448.886 481.388C448.912 482.09 449.263 482.233 449.783 482.233C450.16 482.233 450.615 482.038 450.888 481.804C450.875 481.31 450.862 480.647 450.862 480.049C450.355 480.088 449.523 480.244 449.263 480.361C449.042 480.569 448.873 480.868 448.886 481.388ZM454.882 483.169C454.83 483.195 454.453 483.221 454.44 483.143C454.401 482.714 454.349 481.115 454.349 478.476C454.349 477.449 454.388 475.785 454.44 474.758L453.374 474.329C453.296 474.303 453.309 473.744 453.374 473.731C453.829 473.653 454.687 473.523 455.558 473.458C455.688 474.03 455.662 474.823 455.662 477.423C456.065 477.163 456.988 476.461 457.703 476.461C459.185 476.461 460.03 477.735 460.03 479.451C460.03 482.012 458.561 483.156 456.897 483.156C456.065 483.156 455.61 482.961 455.207 482.766C455.038 483.052 454.934 483.13 454.882 483.169ZM455.597 481.596C455.857 482.142 456.39 482.376 456.975 482.376C457.495 482.376 457.898 482.22 458.223 481.921C458.483 481.44 458.626 480.712 458.626 479.789C458.626 478.216 458.314 477.592 457.43 477.592C456.793 477.592 455.87 477.787 455.662 477.865C455.662 479.425 455.636 481.076 455.597 481.596ZM462.276 475.395C461.704 475.395 461.366 474.979 461.366 474.433C461.366 473.9 461.704 473.471 462.276 473.471C462.848 473.471 463.199 473.9 463.199 474.433C463.199 474.979 462.848 475.395 462.276 475.395ZM460.924 476.656C461.145 476.63 462.146 476.526 463.134 476.526C463.199 476.682 463.212 478.06 463.212 479.438C463.212 480.426 463.186 481.44 463.173 482.012L464.135 482.493C464.187 482.519 464.213 483 464.135 483H460.872C460.794 483 460.807 482.519 460.872 482.493L461.925 482.012C461.899 481.492 461.873 480.829 461.873 479.958C461.873 479.009 461.912 478.372 461.925 477.839L460.911 477.202C460.846 477.163 460.833 476.669 460.924 476.656ZM469.217 483.13C468.723 483.078 468.463 482.753 468.307 482.259C467.813 482.753 467.254 483.169 466.643 483.169C465.564 483.169 464.953 482.597 464.914 481.609C464.888 480.79 465.265 480.179 465.889 479.841C466.526 479.659 467.579 479.49 468.229 479.438C468.229 479.256 468.229 479.087 468.229 478.957C468.229 477.605 468.021 477.514 467.28 477.514C466.552 477.514 465.915 477.696 465.512 477.8C465.46 477.813 465.252 477.462 465.33 477.371C465.785 476.981 466.838 476.422 467.683 476.422C468.866 476.422 469.516 477.033 469.516 478.736C469.516 479.529 469.49 480.959 469.464 481.817L469.581 481.973L470.647 482.077C470.712 482.077 470.725 482.48 470.673 482.519C470.413 482.727 469.646 483.13 469.217 483.13ZM466.253 481.388C466.279 482.09 466.63 482.233 467.15 482.233C467.527 482.233 467.982 482.038 468.255 481.804C468.242 481.31 468.229 480.647 468.229 480.049C467.722 480.088 466.89 480.244 466.63 480.361C466.409 480.569 466.24 480.868 466.253 481.388Z" fill="#156082"/>
<path d="M227.543 83.239C227.569 84.032 227.595 84.786 227.595 86.515C227.595 87.893 227.569 89.128 227.543 89.973L228.947 90.493C229.012 90.519 229.025 91 228.947 91H224.748C224.67 91 224.683 90.519 224.748 90.493L226.165 89.973C226.139 89.128 226.113 87.893 226.113 86.515C226.113 84.786 226.139 84.032 226.165 83.239H223.955L223.136 84.76C223.097 84.838 222.681 84.825 222.681 84.734L222.759 82.108C222.759 82.03 223.136 82.043 223.214 82.108L223.63 82.446H230.078L230.494 82.108C230.585 82.043 230.949 82.03 230.949 82.108L231.027 84.734C231.027 84.825 230.611 84.838 230.572 84.76L229.753 83.239H227.543ZM236.667 91.13C236.264 91.078 235.887 90.779 235.77 90.116C235.367 90.415 234.34 91.156 233.521 91.156C232.273 91.156 231.792 90.519 231.74 88.816C231.714 88.01 231.766 86.697 231.831 85.878L230.895 85.358C230.83 85.319 230.83 84.812 230.908 84.799C231.246 84.734 231.636 84.682 232.104 84.63C232.585 84.578 233.04 84.539 233.04 84.539C233.131 84.916 233.092 85.501 233.066 86.203C233.04 86.736 233.014 87.542 233.027 88.309C233.053 89.609 233.079 90.064 233.911 90.064C234.691 90.064 235.419 89.856 235.744 89.752C235.705 89.167 235.705 88.66 235.705 88.101C235.705 87.23 235.757 86.463 235.783 85.865L234.834 85.384C234.769 85.358 234.756 84.812 234.834 84.799C235.029 84.747 235.406 84.695 236.069 84.604C236.68 84.526 236.979 84.513 236.979 84.513C237.083 84.89 237.057 85.93 237.044 86.827C237.031 87.997 237.005 89.206 236.966 89.817L237.083 89.973L238.149 90.077C238.214 90.077 238.227 90.48 238.175 90.519C237.915 90.727 237.096 91.13 236.667 91.13ZM242.15 90.493C242.241 90.532 242.241 91 242.15 91H238.809C238.731 91 238.744 90.532 238.809 90.493L239.758 90.012C239.732 89.492 239.706 88.66 239.706 87.828C239.706 87.074 239.732 86.333 239.758 85.839L238.718 85.202C238.653 85.163 238.64 84.669 238.731 84.656C238.952 84.63 239.901 84.526 240.889 84.526C240.954 84.76 240.993 85.085 240.993 85.553C241.448 85.137 242.163 84.435 242.839 84.396C243.463 84.357 243.489 84.695 243.437 85.228C243.398 85.657 243.229 86.008 243.086 86.125C243.008 86.138 242.956 86.138 242.878 86.125C242.436 85.943 242.02 85.748 241.76 85.748C241.357 85.748 241.058 85.878 241.006 85.917C241.006 86.151 241.006 86.437 241.006 86.749C241.006 87.659 241.006 88.946 240.941 90.012L242.15 90.493ZM246.672 90.493C246.711 90.519 246.737 91 246.672 91H243.656C243.578 91 243.604 90.519 243.656 90.493L244.592 90.012C244.566 89.024 244.54 87.308 244.54 86.086C244.54 84.591 244.566 83.603 244.592 82.758L243.565 82.329C243.487 82.29 243.5 81.744 243.565 81.731C243.838 81.679 244.891 81.523 245.749 81.458C245.853 81.861 245.84 82.771 245.84 83.317C245.84 84.292 245.84 86.021 245.827 87.516L247.699 85.462L247.179 85.098C247.075 85.02 247.075 84.552 247.192 84.552H250.039C250.143 84.552 250.13 85.098 250.039 85.124L248.596 85.618L247.53 86.58C247.855 87.191 248.31 87.997 248.622 88.517C249.103 89.31 249.402 89.739 249.636 90.064L250.611 90.545C250.676 90.584 250.689 91 250.611 91H248.622C248.401 90.727 247.764 89.674 247.348 88.959C247.101 88.543 246.88 88.127 246.555 87.529L245.827 88.296C245.814 89.037 245.801 89.661 245.788 90.012L246.672 90.493ZM253.873 91.156C252.027 91.156 250.818 90.246 250.818 87.919C250.818 85.67 252.209 84.357 253.847 84.357C255.55 84.357 256.226 85.826 256.161 87.061C256.148 87.256 255.94 87.581 255.823 87.581L252.144 87.568C252.144 89.752 252.781 90.116 253.964 90.116C254.744 90.116 255.433 89.895 255.914 89.492C255.966 89.44 256.161 89.791 256.096 89.921C255.641 90.727 254.627 91.156 253.873 91.156ZM252.755 85.423C252.469 85.735 252.235 86.19 252.17 86.957L254.822 86.905C254.874 85.696 254.406 85.215 253.691 85.215C253.314 85.215 253.002 85.28 252.755 85.423ZM258.483 92.664C258.86 92.482 259.419 91.988 259.731 90.987C259.445 90.389 259.042 89.466 258.665 88.543C258.197 87.438 257.755 86.32 257.547 85.618L256.624 85.085C256.533 85.033 256.52 84.552 256.637 84.552H259.588C259.666 84.552 259.653 85.059 259.588 85.098L258.808 85.475C258.99 85.826 259.315 86.58 259.64 87.386C259.926 88.127 260.212 88.855 260.407 89.401L261.837 85.527L261.044 85.085C260.992 85.059 260.979 84.552 261.057 84.552H263.553C263.631 84.552 263.631 85.046 263.566 85.085L262.721 85.579C262.331 86.502 260.563 90.896 260.121 91.884C259.588 93.093 258.691 94.042 257.482 93.925C257.235 93.847 256.988 93.223 256.988 92.885C256.988 92.781 257.014 92.651 257.157 92.651L258.483 92.664Z" fill="#156082"/>
<path d="M91.4508 430.714C91.4378 430.818 91.2688 431 91.1648 431H84.6778C84.5998 431 84.6128 430.519 84.6778 430.493L85.9128 429.973C85.8868 429.128 85.8608 427.984 85.8608 426.606C85.8608 424.877 85.8868 424.24 85.9128 423.447L84.7428 422.927C84.6778 422.901 84.6778 422.355 84.7428 422.355H91.0348C91.0868 422.355 91.1908 422.459 91.1908 422.511V424.331C91.1908 424.422 90.7878 424.422 90.7358 424.331L90.1378 423.265L87.3298 423.174V426.242L89.6048 426.19L90.0858 425.436C90.1248 425.371 90.4888 425.371 90.4888 425.462V427.776C90.4888 427.841 90.0988 427.841 90.0728 427.789L89.5918 426.957L87.3298 426.905V430.051L87.4858 430.194L90.2548 430.103L91.1778 428.595C91.2298 428.517 91.6588 428.517 91.6458 428.595L91.4508 430.714ZM95.2312 433.925C93.5022 433.925 92.3582 433.444 92.3582 432.144C92.3582 431.481 93.2162 430.948 93.6712 430.753C93.4502 430.662 92.9822 430.402 92.9822 429.882C92.9822 429.336 93.5672 429.024 94.1912 428.738C93.2422 428.426 92.7352 427.75 92.6962 426.762C92.6572 425.41 93.5672 424.357 95.0492 424.357C95.5172 424.357 95.8162 424.448 96.1932 424.578H98.2342C98.3122 424.565 98.3512 425.332 98.2472 425.345L97.2332 425.527C97.4152 425.774 97.5582 426.086 97.5712 426.58C97.6232 428.192 96.3102 428.816 95.3092 428.894C95.1142 428.907 94.9582 428.894 94.8282 428.881C94.7112 428.894 94.2302 429.102 94.1392 429.297C94.1392 429.661 94.5162 429.752 95.9722 429.908C97.6622 430.09 98.2992 430.389 98.2992 431.455C98.2992 432.755 97.0902 433.925 95.2312 433.925ZM96.2842 426.606C96.2452 425.397 95.8942 425.085 95.1012 425.085C94.7502 425.085 94.4902 425.176 94.2822 425.306C94.0612 425.618 93.9442 425.943 93.9702 426.684C94.0482 427.945 94.4122 428.257 95.1402 428.257C95.5172 428.257 95.7902 428.153 95.9982 427.984C96.1932 427.698 96.3102 427.295 96.2842 426.606ZM94.1652 430.909C93.8922 431.078 93.3332 431.663 93.3332 431.897C93.3332 432.794 94.3082 433.184 95.4002 433.184C96.1152 433.184 96.5052 433.106 96.8952 432.937C97.1812 432.703 97.2462 432.404 97.2462 432.079C97.2462 431.455 96.8822 431.221 95.7512 431.091C95.2052 431.039 94.5942 431 94.1652 430.909ZM100.405 432.664C100.782 432.482 101.341 431.988 101.653 430.987C101.367 430.389 100.964 429.466 100.587 428.543C100.119 427.438 99.6766 426.32 99.4686 425.618L98.5456 425.085C98.4546 425.033 98.4416 424.552 98.5586 424.552H101.51C101.588 424.552 101.575 425.059 101.51 425.098L100.73 425.475C100.912 425.826 101.237 426.58 101.562 427.386C101.848 428.127 102.134 428.855 102.329 429.401L103.759 425.527L102.966 425.085C102.914 425.059 102.901 424.552 102.979 424.552H105.475C105.553 424.552 105.553 425.046 105.488 425.085L104.643 425.579C104.253 426.502 102.485 430.896 102.043 431.884C101.51 433.093 100.613 434.042 99.4036 433.925C99.1566 433.847 98.9096 433.223 98.9096 432.885C98.9096 432.781 98.9356 432.651 99.0786 432.651L100.405 432.664ZM109.258 433.262C109.323 433.288 109.336 433.769 109.258 433.769H105.8C105.722 433.769 105.735 433.288 105.8 433.262L106.84 432.781C106.801 431.832 106.775 430.116 106.775 428.894C106.775 427.737 106.814 426.554 106.84 425.839L105.8 425.202C105.735 425.163 105.735 424.669 105.8 424.656C105.8 424.656 106.944 424.526 107.945 424.526C107.997 424.721 108.036 424.981 108.062 425.449C108.439 425.189 109.388 424.461 110.129 424.461C111.611 424.461 112.443 425.735 112.456 427.451C112.469 429.921 111.052 431.156 109.388 431.156C108.699 431.156 108.4 431.039 108.075 430.922C108.075 431.767 108.062 432.326 108.036 432.781L109.258 433.262ZM108.088 427.815C108.088 428.517 108.088 429.128 108.088 429.661C108.322 430.129 108.816 430.389 109.414 430.389C109.986 430.389 110.324 430.22 110.649 429.921C110.909 429.44 111.052 428.738 111.052 427.789C111.052 426.216 110.74 425.592 109.856 425.592C109.037 425.592 108.296 425.787 108.075 425.878C108.088 426.346 108.088 426.97 108.088 427.815ZM116.086 431.195C114.539 431.195 114.162 430.61 114.097 428.92C114.058 427.867 114.123 426.346 114.188 425.514H113.252C113.2 425.514 113.187 424.968 113.252 424.942L114.032 424.591L114.864 422.992C114.903 422.927 115.527 422.914 115.527 422.992C115.475 423.486 115.449 424.136 115.436 424.643L117.256 424.604C117.347 424.604 117.334 425.579 117.256 425.579L115.436 425.514C115.397 426.268 115.345 427.607 115.358 428.582C115.384 430.116 115.527 430.181 116.554 430.181C116.84 430.181 117.334 430.116 117.62 430.025C117.672 430.012 117.75 430.337 117.724 430.376C117.464 430.675 116.775 431.195 116.086 431.195Z" fill="#156082"/>
<path d="M291.67 215.2C291.462 215.395 291.319 215.746 291.319 216.11C291.319 216.773 291.527 217.124 292.177 217.462C292.827 217.826 293.36 217.969 294.114 218.307C295.011 218.697 295.726 219.425 295.726 220.634C295.726 222.038 294.66 223.234 292.45 223.234C291.423 223.234 290.474 222.909 290.058 222.545C289.85 222.363 289.837 222.285 289.837 222.09L289.863 220.309C289.863 220.231 290.331 220.231 290.37 220.309L291.306 222.259C291.631 222.35 292.177 222.389 292.476 222.389C293.737 222.389 294.4 221.882 294.4 220.959C294.4 220.413 294.114 220.01 293.529 219.724C292.814 219.373 292.138 219.204 291.41 218.788C290.487 218.268 290.006 217.579 290.006 216.526C290.006 215.265 291.02 214.121 292.918 214.121C293.815 214.121 294.452 214.251 294.985 214.472C295.258 214.576 295.284 214.667 295.297 214.914L295.401 216.63C295.401 216.734 294.959 216.708 294.907 216.63L293.919 215.044C293.62 214.979 293.412 214.953 292.905 214.953C292.372 214.953 291.917 215.044 291.67 215.2ZM298.346 224.664C298.723 224.482 299.282 223.988 299.594 222.987C299.308 222.389 298.905 221.466 298.528 220.543C298.06 219.438 297.618 218.32 297.41 217.618L296.487 217.085C296.396 217.033 296.383 216.552 296.5 216.552H299.451C299.529 216.552 299.516 217.059 299.451 217.098L298.671 217.475C298.853 217.826 299.178 218.58 299.503 219.386C299.789 220.127 300.075 220.855 300.27 221.401L301.7 217.527L300.907 217.085C300.855 217.059 300.842 216.552 300.92 216.552H303.416C303.494 216.552 303.494 217.046 303.429 217.085L302.584 217.579C302.194 218.502 300.426 222.896 299.984 223.884C299.451 225.093 298.554 226.042 297.345 225.925C297.098 225.847 296.851 225.223 296.851 224.885C296.851 224.781 296.877 224.651 297.02 224.651L298.346 224.664ZM307.238 222.493C307.329 222.532 307.329 223 307.238 223H303.897C303.819 223 303.832 222.532 303.897 222.493L304.846 222.012C304.82 221.492 304.794 220.66 304.794 219.828C304.794 219.074 304.82 218.333 304.846 217.839L303.806 217.202C303.741 217.163 303.728 216.669 303.819 216.656C304.04 216.63 304.989 216.526 305.977 216.526C306.042 216.76 306.081 217.085 306.081 217.553C306.536 217.137 307.251 216.435 307.927 216.396C308.551 216.357 308.577 216.695 308.525 217.228C308.486 217.657 308.317 218.008 308.174 218.125C308.096 218.138 308.044 218.138 307.966 218.125C307.524 217.943 307.108 217.748 306.848 217.748C306.445 217.748 306.146 217.878 306.094 217.917C306.094 218.151 306.094 218.437 306.094 218.749C306.094 219.659 306.094 220.946 306.029 222.012L307.238 222.493ZM310.516 215.395C309.944 215.395 309.606 214.979 309.606 214.433C309.606 213.9 309.944 213.471 310.516 213.471C311.088 213.471 311.439 213.9 311.439 214.433C311.439 214.979 311.088 215.395 310.516 215.395ZM309.164 216.656C309.385 216.63 310.386 216.526 311.374 216.526C311.439 216.682 311.452 218.06 311.452 219.438C311.452 220.426 311.426 221.44 311.413 222.012L312.375 222.493C312.427 222.519 312.453 223 312.375 223H309.112C309.034 223 309.047 222.519 309.112 222.493L310.165 222.012C310.139 221.492 310.113 220.829 310.113 219.958C310.113 219.009 310.152 218.372 310.165 217.839L309.151 217.202C309.086 217.163 309.073 216.669 309.164 216.656ZM317.457 223.13C316.963 223.078 316.703 222.753 316.547 222.259C316.053 222.753 315.494 223.169 314.883 223.169C313.804 223.169 313.193 222.597 313.154 221.609C313.128 220.79 313.505 220.179 314.129 219.841C314.766 219.659 315.819 219.49 316.469 219.438C316.469 219.256 316.469 219.087 316.469 218.957C316.469 217.605 316.261 217.514 315.52 217.514C314.792 217.514 314.155 217.696 313.752 217.8C313.7 217.813 313.492 217.462 313.57 217.371C314.025 216.981 315.078 216.422 315.923 216.422C317.106 216.422 317.756 217.033 317.756 218.736C317.756 219.529 317.73 220.959 317.704 221.817L317.821 221.973L318.887 222.077C318.952 222.077 318.965 222.48 318.913 222.519C318.653 222.727 317.886 223.13 317.457 223.13ZM314.493 221.388C314.519 222.09 314.87 222.233 315.39 222.233C315.767 222.233 316.222 222.038 316.495 221.804C316.482 221.31 316.469 220.647 316.469 220.049C315.962 220.088 315.13 220.244 314.87 220.361C314.649 220.569 314.48 220.868 314.493 221.388Z" fill="#156082"/>
<path d="M254.534 281.447C254.651 282.89 254.651 284.983 254.638 286.231C254.612 288.493 254.573 289.117 254.027 289.78C253.416 290.508 252.168 290.755 251.427 290.82C251.297 290.82 251.232 290.443 251.31 290.391C251.791 290.079 252.48 289.624 252.935 289.221C253.104 288.727 253.117 287.908 253.117 286.231V281.447L251.934 280.927C251.869 280.901 251.869 280.355 251.934 280.355H255.691C255.756 280.355 255.756 280.901 255.691 280.927L254.534 281.447ZM259.367 282.357C261.33 282.357 262.513 283.618 262.513 285.646C262.513 287.765 261.291 289.182 259.367 289.195C257.469 289.195 256.247 288.116 256.247 285.776C256.247 283.735 257.469 282.357 259.367 282.357ZM260.654 287.986C260.927 287.505 261.109 286.803 261.109 285.75C261.109 283.839 260.498 283.228 259.419 283.228C258.912 283.228 258.483 283.332 258.21 283.527C257.911 283.904 257.651 284.632 257.651 285.75C257.625 287.687 258.197 288.376 259.354 288.376C259.887 288.376 260.355 288.259 260.654 287.986ZM266.774 288.493C266.865 288.532 266.865 289 266.774 289H263.433C263.355 289 263.368 288.532 263.433 288.493L264.382 288.012C264.356 287.492 264.33 286.66 264.33 285.828C264.33 285.074 264.356 284.333 264.382 283.839L263.342 283.202C263.277 283.163 263.264 282.669 263.355 282.656C263.576 282.63 264.525 282.526 265.513 282.526C265.578 282.76 265.617 283.085 265.617 283.553C266.072 283.137 266.787 282.435 267.463 282.396C268.087 282.357 268.113 282.695 268.061 283.228C268.022 283.657 267.853 284.008 267.71 284.125C267.632 284.138 267.58 284.138 267.502 284.125C267.06 283.943 266.644 283.748 266.384 283.748C265.981 283.748 265.682 283.878 265.63 283.917C265.63 284.151 265.63 284.437 265.63 284.749C265.63 285.659 265.63 286.946 265.565 288.012L266.774 288.493ZM275.323 288.519C275.063 288.727 274.244 289.13 273.815 289.13C273.321 289.052 273.113 288.714 272.944 288.194V288.168C272.515 288.571 271.865 289.13 271.072 289.13C269.525 289.13 268.524 287.817 268.498 286.114C268.459 283.644 270.006 282.474 271.566 282.474C272.099 282.474 272.554 282.539 272.879 282.721C272.892 281.967 272.918 281.252 272.931 280.758L271.904 280.342C271.826 280.303 271.839 279.731 271.904 279.731C271.904 279.731 273.178 279.523 274.049 279.458C274.166 280.004 274.205 281.499 274.192 283.657C274.192 285.048 274.153 286.959 274.114 287.817L274.231 287.973L275.297 288.077C275.362 288.077 275.375 288.48 275.323 288.519ZM269.902 285.737C269.902 287.492 270.279 288.051 271.358 288.051C271.969 288.051 272.645 287.908 272.905 287.804C272.853 286.842 272.866 285.243 272.866 283.995C272.593 283.605 272.164 283.345 271.553 283.345C271.059 283.345 270.682 283.436 270.409 283.631C270.058 284.151 269.902 284.866 269.902 285.737ZM280.32 289.13C279.826 289.078 279.566 288.753 279.41 288.259C278.916 288.753 278.357 289.169 277.746 289.169C276.667 289.169 276.056 288.597 276.017 287.609C275.991 286.79 276.368 286.179 276.992 285.841C277.629 285.659 278.682 285.49 279.332 285.438C279.332 285.256 279.332 285.087 279.332 284.957C279.332 283.605 279.124 283.514 278.383 283.514C277.655 283.514 277.018 283.696 276.615 283.8C276.563 283.813 276.355 283.462 276.433 283.371C276.888 282.981 277.941 282.422 278.786 282.422C279.969 282.422 280.619 283.033 280.619 284.736C280.619 285.529 280.593 286.959 280.567 287.817L280.684 287.973L281.75 288.077C281.815 288.077 281.828 288.48 281.776 288.519C281.516 288.727 280.749 289.13 280.32 289.13ZM277.356 287.388C277.382 288.09 277.733 288.233 278.253 288.233C278.63 288.233 279.085 288.038 279.358 287.804C279.345 287.31 279.332 286.647 279.332 286.049C278.825 286.088 277.993 286.244 277.733 286.361C277.512 286.569 277.343 286.868 277.356 287.388ZM285.276 288.493C285.315 288.519 285.341 289 285.276 289H282.26C282.182 289 282.195 288.532 282.26 288.493L283.209 288.012C283.183 287.492 283.157 286.66 283.157 285.828C283.157 285.074 283.183 284.333 283.209 283.839L282.169 283.202C282.104 283.163 282.091 282.669 282.182 282.656C282.403 282.63 283.352 282.526 284.34 282.526C284.405 282.76 284.431 283.046 284.444 283.488C284.873 283.189 285.861 282.461 286.667 282.461C287.902 282.461 288.448 283.072 288.474 284.788C288.487 285.568 288.448 286.933 288.331 288.012L289.293 288.493C289.345 288.519 289.371 289 289.293 289H286.238C286.16 289 286.186 288.519 286.238 288.493L287.083 288.012C287.122 287.232 287.148 286.101 287.148 285.334C287.148 284.034 287.109 283.644 286.277 283.644C285.458 283.644 284.73 283.826 284.457 283.904C284.457 284.125 284.457 284.385 284.457 284.684C284.457 285.594 284.444 287.076 284.392 288.012L285.276 288.493Z" fill="#156082"/>
</svg>
