<svg width="853" height="758" viewBox="0 0 853 758" fill="none" xmlns="http://www.w3.org/2000/svg">
<g clip-path="url(#clip0_156_41)">
<path d="M849.945 407.123L842.732 409.983L839.276 406.647L842.45 398.285L838.984 389.934L840.132 383.002L830.037 374.89L821.09 373.936L810.984 363.907L811.276 356.747L798.57 340.75L818.49 314.484L819.064 305.18L813.876 300.642L797.13 296.818L797.996 278.914L791.649 253.851L797.996 247.645V243.583L791.064 242.391L789.049 226.156L797.704 222.809L796.263 217.079L800.011 212.779L803.77 201.796L806.369 188.192L802.903 185.333L806.077 178.639L802.903 175.065L806.434 171.61L803.867 159.522L786.547 158.991L779.745 147.954L769.736 144.662L764.992 140.416L765.631 135.011L763.324 132.357L758.71 133.841L754.604 128.426L746.524 128.75L742.289 131.61L736.775 125.664L718.805 120.627L721.698 116.013L718.426 112.038L712.653 115.851L707.454 113.63H698.604L697.066 118.396L678.013 117.919L664.159 127.635L663.585 135.108L654.541 139.571L644.922 139.408L647.803 150.554L630.581 153.337L606.914 160.735L595.367 160.973L591.327 157.161L580.073 156.435L563.619 144.976L562.752 137.578L545.14 135.672L536.193 128.025L533.886 119.912L534.46 107.976L528.405 109.168L517.151 99.138L514.833 93.8848L520.325 92.2168L517.151 85.0574L522.913 80.0426L516.284 72.1683H508.193L483.085 95.3254L473.846 96.7551L460.577 93.17L456.244 86.4871L451.045 86.2488L448.163 73.1214L441.903 69.3738L434.017 60.7847L422.471 62.2144L419.199 59.03L416.795 49.3253L420.737 45.1878L421.507 40.2487L419.102 33.9666L413.719 32.5369L414.293 27.8362L408.043 26.883L408.227 23.4604L400.634 19.0087L399.767 16.3009L393.994 16.3768L393.507 20.6768L382.545 18.1314L380.043 19.9619L371.28 18.2072L361.466 27.3596L357.523 27.1971L353.678 32.4503L347.612 32.2986L344.829 34.6815L330.877 33.6525L326.935 29.7533L323.663 32.3744L319.807 31.183L312.593 34.6815L309.03 33.8042L304.892 36.512L291.905 33.0893L289.5 30.3057L286.034 29.2659L284.398 31.7354L274.108 27.8362L272.278 23.6228L266.699 22.2689L261.218 26.883L258.391 26.1357L253.138 19.8752L253.387 14.0481L249.412 11.6002L245.307 14.1455L237.865 13.9397L230.424 7.8851L232.861 2.48033L228.507 0.465729L221.574 4.91735L199.38 4.27831L193.357 2.26371L183.089 8.21004L173.21 8.63246L166.668 15.9543L149.348 23.4929L148.839 28.4752L142.037 30.9122L131.389 30.0674L126.006 26.9913L120.362 29.3201L102.403 27.1971L97.6482 33.6742L104.191 40.1513L115.607 40.4654L114.968 42.48L95.0811 44.3863L91.4958 47.2565L93.6729 49.0545L110.484 48.957L110.993 51.2857L75.3348 51.8165L73.2768 48.2097L68.9116 47.993V53.7227H63.6582L59.6829 50.6467L48.5154 51.5024L38.1277 62.8535L33.8925 63.6983L33.6651 73.598L31.5529 76.8582L32.2244 78.5262L37.2287 78.6887L43.4786 75.1035L50.985 75.266L49.8369 79.566L44.8326 81.9489L45.2117 85.8481L50.985 89.2708L47.5189 91.1879L47.9088 94.0473L53.4872 94.2856L51.18 99.138L47.6164 99.2246L46.6632 101.694L49.9343 106.547L53.7796 107.175L53.4872 109.254L43.7711 109.969L44.4427 104.868L40.7924 100.968L37.9978 102.322L37.9003 105.669L40.5974 107.261L40.4024 110.836L37.0337 110.998L36.7521 114.583L47.9088 115.461L49.8369 118.959L53.1081 118.32L55.3177 120.865L59.0655 121.504L56.9533 128.75L53.8771 129.379L54.1587 131.133L56.8558 132.801L57.2458 139.408L60.9936 138.618L61.9576 141.239L65.0338 141.715L64.0698 145.777L59.163 145.138L57.2458 148.16L69.1715 149.2L72.4427 147.445L80.0466 148.247L79.375 150.554L75.5189 150.705L75.1398 155.72L73.3093 160.334L76.6779 160.973L80.4257 154.366L87.4555 154.215L90.7267 158.428H93.8029L95.0486 156.522L98.2331 156.922L97.7457 165.349L101.981 169.173L109 170.602L112.369 173.873L122.085 168.144L125.269 168.057L127.089 169.974L129.688 168.534L128.54 163.919L131.519 161.612L130.458 154.529L132.581 152.146L136.328 153.175H146.629L157.114 160.421L162.693 161.374L169.625 171.88L179.439 175.855L183.858 173.787L199.066 172.194L201.568 167.418L204.449 167.266L205.413 169.812L208.879 168.382L209.258 163.443L219.646 154.691H225.04L234.659 162.165L236.966 160.096L242.36 160.735L244.472 154.854L248.134 155.482L249.672 150.705L253.907 151.03L254.676 159.143L245.242 167.418L249.282 177.686L243.801 187.477L247.841 191.539L247.267 207.049L250.148 212.541L241.591 224.401V232.524L237.735 233.001L237.161 242.067L230.619 254.956L225.614 273.737L216.57 295.226L209.648 303.025L204.254 307.325L194.062 306.534L192.708 310.032L189.252 309.707L189.436 305.093L185.786 304.942L182.894 309.556L175.778 309.707L170.394 303.826L165.964 305.256L161.534 302.234L162.498 298.248L151.536 298.41L141.138 294.75L126.32 298.573L123.818 302.548L117.47 302.71L115.163 307.639L102.273 316.076L96.6842 314.809L86.8706 308.917L72.8327 308.126L71.2837 305.57L65.3263 306.209L59.9321 303.349L60.322 300.804L53.5846 299.049L31.2604 293.959L25.4871 293.796L20.6778 296.818L15.4894 297.143L12.0232 294.11L5.48086 299.212L5.09092 307.801L8.94702 315.123L6.62903 325.467L0.476597 332.789L6.05495 345.201L5.09092 350.931L8.55708 355.231L9.13116 536.989L270.068 537.152L270.577 534.39L260.828 527.924L256.344 519.963L248.004 519.324L242.869 509.987L239.403 499.914L240.053 490.783L244.667 490.469L244.797 487.707L239.468 485.184L237.454 479.931L231.962 475.88L230.814 468.709L224.466 455.105L218.108 448.661V443.884L209.453 431.948L205.695 422.157L206.854 415.236L199.932 402.585L195.026 398.762L195.881 390.411L187.227 383.966L181.746 374.413L181.161 370.113L175.973 364.86L177.987 357.7L174.532 350.779L169.625 348.624L169.907 344.096L174.814 337.641L178.854 340.988L179.146 350.541L188.667 363.192V373.698L196.748 380.381L198.481 384.443L206.854 393.508L211.187 393.27L214.653 388.97L214.934 380.381L218.693 374.175L220.426 363.43L224.271 353L228.117 354.44L225.419 364.622L223.881 374.175L218.877 385.634L231.583 386.587L245.826 405.369L246.206 411.098L264.295 437.516L263.526 443.57L266.223 446.43L270.068 447.069L273.913 450.99L273.274 454.174L277.856 459.167L276.415 468.233L281.907 475.165L282.763 480.895L289.403 481.609L293.161 485.66L301.534 488.769L308.456 499.513V505.481L315.095 514.796L318.269 529.115L314.229 539.383L319.136 543.683L321.443 550.842L318.843 553.702L334.43 577.823H339.922L352.335 589.521L355.79 589.282L355.509 595.25L360.415 598.11L365.701 616.1L370.706 620.238L370.327 626.282L376.1 635.033L390.138 643.471L389.369 650.63L398.738 662.046L398.803 670.928L400.818 675.228L401.977 682.864L398.229 685.973L399.377 692.894L394.471 695.753L395.045 697.908L400.244 698.623L403.71 705.545L404.002 718.434L410.631 730.131L409.776 743.984L414.098 746.844L414.964 755.444L420.163 754.252L423.63 757.35L433.725 757.588L437.765 753.05L449.897 754.252L451.619 748.284L459.418 746.844L462.884 740.638L470.964 738.016L487.125 739.446L502.138 733.24L505.019 728.94L514.833 724.163L520.325 726.08L531.579 723.448L539.085 712.942L550.339 706.498H558.994L577.473 698.623L586.712 699.338L605.473 688.832L607.78 681.673L605.755 675.228L614.127 667.343L625.479 663.205L633.885 662.469L640.048 658.429L646.46 657.801L650.306 655.147L660.184 654.93L663.899 656.847L667.625 656.631L674.937 650.056L675.327 645.28L673.269 644.002L673.778 641.348L680.136 635.033L698.799 633.127L704.183 625.166L704.573 617.53L709.382 613.555L719.964 610.208H728.435L730.742 606.71L727.471 591.113L731.121 588.243L731.511 584.907L730.612 579.913L733.558 577.26V574.292L737.794 569.732L741.13 568.876V571.747L739.213 573.545L740.231 575.776L744.986 575.559L746.903 573.545L747.293 568.768L751.398 565.595L751.528 561.24L758.58 552.749L763.584 550.734L767.299 541.138L771.155 539.86L775.965 530.946L774.037 523.786L763.454 517.731L756.337 507.864L751.907 499.914L745.365 495.928L739.787 496.405L737.089 494.022H729.778L715.155 488.769L702.839 475.88L698.994 465.048L699.568 450.253L696.785 448.563L699.947 441.025L700.63 432.739L699.763 429.241L696.102 432.024L693.6 436.4L688.596 444.523L679.172 450.091L678.782 452.961L672.435 461.388L664.928 466.164L660.314 473.963H656.469L653.382 476.031L656.653 478.739L655.689 481.447L649.731 480.808L648.572 484.631L640.882 486.538L630.873 484.794L619.706 485.422L615.861 483.353L608.354 489.408L601.043 488.931L597.967 486.224V482.086L593.731 480.97L587.763 480.808L587.958 476.356L580.452 475.88L576.411 468.558L570.064 460.911L570.443 453.589L564.486 450.416V446.43L559.286 438.956L563.132 433.855L564.096 427.811L559.86 426.056L560.055 418.42L552.17 414.759L549.473 410.145L544.664 410.297L543.125 406.647L539.28 403.462L542.735 401.708L542.356 399.162L533.312 398.209L534.655 392.317L531.189 387.064L527.149 386.75L526.769 376.72L524.267 373.373L522.339 365.575L517.53 362.076L515.418 353.964L508.485 352.686L512.721 347.909L516.566 348.234V345.364L514.064 341.064L514.833 336.775L520.606 335.735L524.646 340.035L527.82 339.082L534.276 335.973L534.081 326.582L541.587 325.943L541.771 333.904L549.668 336.775L557.358 331.196L562.947 332.475L561.409 338.995L573.714 350.303L573.335 359.531L577.473 366.766L582.087 367.73L582.672 378.475L590.168 392.079L602.581 392.794L615.861 400.191L616.435 404.968L624.526 410.221L636.062 413.806L636.647 418.821L642.702 421.919L649.341 419.774L662.047 426.219L673.301 418.821L679.941 419.297L692.062 409.744L706.501 409.268L711.981 414.283L719.488 443.884L752.969 449.137L757.009 453.676L765.664 451.52L785.291 456.297L791.064 455.344L806.943 461.55L815.316 458.929L815.598 447.469L819.638 445.076L820.797 439.823L819.064 433.14L822.238 430.042L827.437 432.425L829.463 430.28L829.17 425.504L835.81 422.395L849.664 422.634L852.545 409.506L849.945 407.123Z" stroke="#156082" stroke-width="0.75" stroke-miterlimit="10"/>
</g>
<defs>
<clipPath id="clip0_156_41">
<rect width="853" height="758" fill="white"/>
</clipPath>
</defs>
</svg>
