<svg width="92" height="65" viewBox="0 0 92 65" fill="none" xmlns="http://www.w3.org/2000/svg">
<g filter="url(#filter0_d_57_3587)">
<path d="M45.1789 46.4974C45.3396 46.8123 45.6549 47 46 47C46.3451 47 46.6604 46.8123 46.8211 46.4974L59.3272 22.4651C62.6293 16.1254 60.9098 8.23575 55.3409 4.10017C52.5863 2.07779 49.3615 1 45.9941 1C42.6265 1 39.4018 2.07779 36.6591 4.10017C31.0902 8.23575 29.3707 16.1254 32.6728 22.4651L45.1789 46.4974ZM45.9941 10.4579C49.1712 10.4579 51.7652 13.0858 51.7652 16.3313C51.7652 19.5768 49.1712 22.1986 45.9941 22.1986C42.8169 22.1986 40.2229 19.5708 40.2229 16.3313C40.2229 13.0919 42.8169 10.4579 45.9941 10.4579Z" fill="#156082"/>
</g>
<path d="M35.9546 52.006L32.9126 58.948C32.8736 59.052 32.3406 59.078 32.2756 58.948C31.8596 58.129 31.2746 56.79 30.7546 55.594C30.2346 54.372 29.6496 52.929 29.2986 52.019L29.2076 57.921L30.3516 58.467C30.4166 58.493 30.4296 59 30.3516 59H27.0236C26.9456 59 26.9586 58.493 27.0236 58.467L28.2326 57.921L28.4016 51.46L27.2186 50.953C27.1406 50.914 27.1536 50.355 27.2186 50.355H30.4556C30.8456 51.122 31.3786 52.266 31.8856 53.462C32.3146 54.45 32.8346 55.711 33.1336 56.556L35.7986 50.355H38.8406C38.9056 50.355 38.9056 50.927 38.8406 50.953L37.7616 51.46C37.8006 52.253 37.8396 53.358 37.8526 54.723C37.8656 55.945 37.8526 57.18 37.8136 57.947L38.9966 58.467C39.0486 58.493 39.0616 59 38.9966 59H34.9146C34.8366 59 34.8496 58.493 34.9146 58.467L36.0066 57.947C35.9546 57.219 35.9286 56.426 35.9156 55.061C35.9026 53.917 35.9286 52.773 35.9546 52.006ZM42.8837 52.292C44.9117 52.292 46.3027 53.553 46.3027 55.633C46.3027 57.765 44.9117 59.208 42.9097 59.221C40.8687 59.221 39.4907 58.051 39.4907 55.763C39.4907 53.696 40.8687 52.292 42.8837 52.292ZM44.0407 57.999C44.3007 57.531 44.4697 56.751 44.4567 55.711C44.4437 53.839 43.8587 53.228 42.8967 53.228C42.4807 53.228 42.1037 53.319 41.8437 53.488C41.5447 53.865 41.3237 54.632 41.3367 55.737C41.3367 57.635 41.8437 58.324 42.9097 58.324C43.3647 58.324 43.7417 58.246 44.0407 57.999ZM49.6813 59.221C48.7583 59.221 47.9133 58.948 47.6403 58.753C47.4583 58.623 47.3673 58.48 47.3413 58.272C47.2893 57.856 47.2893 57.349 47.3283 56.829C47.3413 56.738 47.8353 56.738 47.9003 56.829L48.7453 58.207C48.9923 58.272 49.3043 58.35 49.7853 58.35C50.4353 58.35 51.1113 58.194 51.1113 57.492C51.1113 56.959 50.7733 56.712 49.7073 56.478C48.2513 56.166 47.4453 55.542 47.4323 54.32C47.4193 53.124 48.4333 52.292 50.0843 52.292C50.7993 52.292 51.4233 52.383 51.7743 52.526C52.0343 52.643 52.1123 52.734 52.1513 52.994C52.2293 53.475 52.2553 53.917 52.2553 54.385C52.2553 54.489 51.6963 54.463 51.6443 54.385L50.9293 53.293C50.7343 53.228 50.3963 53.189 50.0193 53.189C49.6813 53.189 49.2653 53.241 49.0573 53.345C48.9403 53.475 48.8753 53.657 48.8753 53.878C48.8753 54.476 49.2003 54.684 50.3053 54.944C51.9043 55.321 52.5283 55.971 52.5283 57.037C52.5283 58.376 51.2933 59.221 49.6813 59.221ZM59.3696 59.143C58.9016 59.117 58.5246 58.753 58.3816 58.155C57.9786 58.441 56.9646 59.156 56.1326 59.156C54.8976 59.156 54.2476 58.571 54.1566 56.894C54.1046 56.114 54.1696 54.684 54.2346 53.878L53.3246 53.358C53.2726 53.332 53.2596 52.734 53.3376 52.721C53.6756 52.656 54.1306 52.604 54.6766 52.552C55.1446 52.513 55.4826 52.487 55.7946 52.474C55.8726 52.812 55.8336 53.553 55.8206 54.242C55.7946 54.879 55.7816 55.464 55.7946 56.218C55.8206 57.505 55.8336 57.947 56.6526 57.947C57.4196 57.947 58.0046 57.765 58.3296 57.661C58.2906 57.128 58.2906 56.582 58.2906 56.023C58.2906 55.165 58.3426 54.411 58.3816 53.865L57.4716 53.384C57.4066 53.358 57.3936 52.747 57.4716 52.734C57.6536 52.682 58.1476 52.617 58.7976 52.539C59.4996 52.461 59.9416 52.448 59.9416 52.448C60.0326 52.799 60.0066 53.982 60.0066 54.801C59.9936 55.958 59.9546 57.102 59.9286 57.739L60.0456 57.908L61.0726 58.025C61.1376 58.038 61.1506 58.48 61.0986 58.519C60.8386 58.727 59.8246 59.143 59.3696 59.143ZM64.2292 54.125C64.2292 55.815 64.2162 57.076 64.1902 57.973L65.0612 58.467C65.1002 58.493 65.1262 59 65.0612 59H61.6942C61.6162 59 61.6292 58.493 61.6942 58.467L62.5782 57.973C62.5522 57.011 62.5132 55.464 62.5132 54.164C62.5132 52.773 62.5522 51.655 62.5782 50.836L61.5642 50.355C61.4992 50.329 61.4992 49.744 61.5772 49.731C61.8632 49.679 63.1502 49.497 64.0992 49.458C64.2682 50.056 64.2292 52.24 64.2292 54.125Z" fill="#156082"/>
<defs>
<filter id="filter0_d_57_3587" x="29" y="0" width="36" height="52" filterUnits="userSpaceOnUse" color-interpolation-filters="sRGB">
<feFlood flood-opacity="0" result="BackgroundImageFix"/>
<feColorMatrix in="SourceAlpha" type="matrix" values="0 0 0 0 0 0 0 0 0 0 0 0 0 0 0 0 0 0 127 0" result="hardAlpha"/>
<feOffset dx="1" dy="2"/>
<feGaussianBlur stdDeviation="1.5"/>
<feComposite in2="hardAlpha" operator="out"/>
<feColorMatrix type="matrix" values="0 0 0 0 0 0 0 0 0 0 0 0 0 0 0 0 0 0 0.25 0"/>
<feBlend mode="normal" in2="BackgroundImageFix" result="effect1_dropShadow_57_3587"/>
<feBlend mode="normal" in="SourceGraphic" in2="effect1_dropShadow_57_3587" result="shape"/>
</filter>
</defs>
</svg>
